<svg id="Layer_1" data-name="Layer 1" xmlns="http://www.w3.org/2000/svg" viewBox="0 0 547.24 529.77"><defs><style>.cls-1{fill:#efd8be;}.cls-2{fill:#407bff;}.cls-3{fill:#cda1a7;}.cls-4{fill:#fff7f0;}.cls-5{fill:#faefde;}</style></defs><title>download</title><path d="M456.66,743.12h-6.07c-42.16,0-84.32-.09-126.48,0-15.75.06-27.91-5.81-35-20.22-1.92-3.91-2.5-8.51-3.49-12.84a23,23,0,0,1-.17-5q0-169.47,0-338.95c0-14.55,6.3-24.12,18.69-27.95a35.92,35.92,0,0,1,10.34-1.37q65.24-.14,130.48-.06a47.8,47.8,0,0,1,35,14.46c9.69,9.64,19.62,19,29.19,28.78,6.71,6.84,14.49,9.88,24.12,9.85,72.16-.16,144.32-.06,216.47-.11,9.66,0,18.56,2.14,24,10.61,2.92,4.56,4.22,10.27,5.68,15.62.72,2.61.13,5.57.13,9.13,8.15,0,15.9-.07,23.66,0,9.76.11,18.36,2.8,24.39,11.2,3.88,5.41,5,11.45,5,17.94q-.07,73.48,0,147,0,52.25,0,104.48c0,15.12-6.2,27.09-20,33.55-5.78,2.69-12.85,3.63-19.34,3.67-47.83.29-95.65.15-143.48.15h-7.39c3.74,3.85,6.45,6.63,9.16,9.39,5.88,6,6,10.43.16,16.25q-46.63,46.69-93.32,93.33c-5.92,5.91-10.48,6-16.29.15q-46.83-46.86-93.58-93.78c-5.58-5.59-5.53-9.73-.06-15.43,2.77-2.88,5.55-5.75,8.31-8.64C456.82,744.32,456.74,744.09,456.66,743.12ZM302.87,637h7.28q86.49,0,173,0a35.53,35.53,0,0,1,7.44.57c4.64,1,6.59,4.44,6.39,8.85-.19,4.2-2.47,7.26-6.81,8.09a35,35,0,0,1-6.48.33q-87.24,0-174.47,0h-6.26c0,16.57,0,32.54,0,48.5,0,15.38,6.53,21.89,21.91,21.89,48,0,96-.06,144,.1,4.85,0,8.44-1.15,11.79-4.8,4.95-5.38,10.57-5.76,15.1-.3,5.43,6.53,11.88,5,18.95,4.65v-6.26q0-86.75.08-173.48c0-11.82,2.3-14.18,13.9-14.18h43c11.43,0,13.87,2.43,13.88,13.7q0,87,.08,174v6.14c12,1.35,12.86,1.19,17.39-3.29,6.73-6.64,10.94-6.46,17.91-.09,2.09,1.92,5.32,3.66,8,3.68,44.66.22,89.32.16,134,.15,1.22,0,2.44-.16,3.42-.23-8.75-23-2-46.62-5.1-70.16H616.51a32.23,32.23,0,0,1-6-.27c-4.48-.84-7.08-3.7-7.22-8.26s1.93-7.77,6.51-8.78a32.89,32.89,0,0,1,6.95-.54q69.24,0,138.48,0h6.81V630.4q0-104.74,0-209.47c0-10.74-2.53-13.26-13.23-13.26q-107.73,0-215.47.06c-14.48,0-26.6-4.7-36.76-15-9.47-9.62-19.28-18.91-28.79-28.48a31.47,31.47,0,0,0-23.71-9.69c-42.66.21-85.33.09-128,.09-10.71,0-13.27,2.58-13.27,13.31q0,131.48,0,263ZM610.93,738.26a30.44,30.44,0,0,1-3,4.34c-8.12,8.13-16.38,16.13-24.48,24.29-3.08,3.09-6.57,4-10.45,2.38s-5.68-4.93-5.65-9.17c0-1.67,0-3.33,0-5q0-100,.1-199.93c0-4.32-1.06-5.91-5.54-5.72-7.48.32-15,.08-22.49.09-6.48,0-6.48,0-6.48,6.58q0,101,.06,201.93c0,5-1.21,9-5.86,11.1-4.92,2.25-8.62-.32-11.95-3.69-2.11-2.13-4.24-4.24-6.36-6.36l-19.91-20c-7.4,7.54-14.46,14.72-21.1,21.47L550,842.79l82.47-82.5Zm169-294.72V703.9c0,1,0,2,0,3,.81,9.34,7.86,16.84,16.72,17.82,7.47.83,15.13-4.49,17.2-12.29a31.45,31.45,0,0,0,.61-7.9q0-109.42,0-218.84c0-11,0-22,0-33,0-5.56-2.05-8.71-7.21-9C798.34,443.16,789.38,443.54,779.89,443.54Z" transform="translate(-285.43 -336.79)"/><path class="cls-1" d="M302.87,637v-6.13q0-131.47,0-263c0-10.73,2.56-13.3,13.27-13.31,42.66,0,85.33.12,128-.09a31.47,31.47,0,0,1,23.71,9.69c9.51,9.57,19.32,18.86,28.79,28.48,10.16,10.31,22.28,15,36.76,15q107.75-.21,215.47-.06c10.7,0,13.23,2.52,13.23,13.26q0,104.73,0,209.47V637h-6.81q-69.24,0-138.48,0a32.89,32.89,0,0,0-6.95.54c-4.58,1-6.65,4.3-6.51,8.78s2.74,7.42,7.22,8.26a32.23,32.23,0,0,0,6,.27H761.26c3.1,23.54-3.65,47.19,5.1,70.16-1,.07-2.2.23-3.42.23-44.67,0-89.33.07-134-.15-2.72,0-6-1.76-8-3.68-7-6.37-11.18-6.55-17.91.09-4.53,4.48-5.34,4.64-17.39,3.29v-6.14q0-87-.08-174c0-11.27-2.45-13.7-13.88-13.7h-43c-11.6,0-13.9,2.36-13.9,14.18q0,86.74-.08,173.48V725c-7.07.36-13.52,1.88-18.95-4.65-4.53-5.46-10.15-5.08-15.1.3-3.35,3.65-6.94,4.82-11.79,4.8-48-.16-96-.09-144-.1-15.38,0-21.9-6.51-21.91-21.89,0-16,0-31.93,0-48.5h6.26q87.24,0,174.47,0a35,35,0,0,0,6.48-.33c4.34-.83,6.62-3.89,6.81-8.09.2-4.41-1.75-7.86-6.39-8.85a35.53,35.53,0,0,0-7.44-.57q-86.49,0-173,0Zm26.61,52.82h-.08c0-3.15.36-6.36-.08-9.46-.75-5.32-4.32-8.16-9.18-7.92s-8.13,3.49-8.36,8.84c-.25,5.81-.24,11.66,0,17.47.22,5.27,3.62,8.66,8.3,8.89,5,.24,8.69-2.83,9.33-8.34A80.8,80.8,0,0,0,329.48,689.86Zm88.2.33h0c0-3,.11-6,0-9-.24-5.19-3.46-8.52-8.3-8.77s-8.81,2.78-9.1,7.82a164.49,164.49,0,0,0,.06,19.86c.29,4.8,4.1,7.66,8.8,7.54a8.42,8.42,0,0,0,8.48-8C417.85,696.5,417.68,693.34,417.68,690.19Zm264.94-.37h0c0,3,0,6,0,9a8.22,8.22,0,0,0,.06,1,8.53,8.53,0,0,0,8.13,7.89c4.75.27,8.8-2.45,9.11-7.16a155.69,155.69,0,0,0,0-20.83c-.32-4.74-4.43-7.5-9.13-7.2a8.23,8.23,0,0,0-8.08,7.9C682.43,683.51,682.62,686.67,682.62,689.82Zm44,.11h0c0,3-.18,6,0,9,.36,5,4,8.6,8.53,8.75,4.86.16,8.7-2.74,9.12-8a126,126,0,0,0,.09-18.94,8.52,8.52,0,0,0-9.42-8.25c-4.65.29-8,3.78-8.36,9C726.42,684.26,726.57,687.1,726.57,689.93Zm-352.88.13h0c0-2.83.13-5.67,0-8.49-.29-5.13-3.63-8.72-8.24-9.07-5-.38-9.09,2.68-9.48,8.12a117.69,117.69,0,0,0,.16,19.42c.49,5.3,4.35,8,9.35,7.6a9,9,0,0,0,8.16-8.59C373.87,696.07,373.69,693.06,373.69,690.06Zm88.1.22c0-3.31.26-6.65-.06-9.93a8.27,8.27,0,0,0-8.08-7.89c-4.5-.3-8.75,2.53-9.11,7.25a137.28,137.28,0,0,0,0,20.78c.36,4.74,4.5,7.47,9.15,7.17a8.25,8.25,0,0,0,8-7.94C462,696.6,461.78,693.43,461.79,690.28Zm194.73.3a95.88,95.88,0,0,0-.64-10.62c-.81-4.92-4.47-7.73-9-7.53s-8.06,3.2-8.3,8.29a187.74,187.74,0,0,0,.06,19c.25,4.83,3.53,7.71,8.06,8a8.37,8.37,0,0,0,9.19-7.31A88.35,88.35,0,0,0,656.52,690.58Zm-150.7-.19h.1q0-4.5,0-9c0-.33,0-.67-.07-1-.54-4.8-3.91-7.94-8.59-8-4.4,0-8.29,2.83-8.55,7.37a166.1,166.1,0,0,0,.07,20.93c.32,4.56,4.24,7.17,8.85,7a8.13,8.13,0,0,0,8.15-7.8C506,696.73,505.82,693.55,505.82,690.39Zm88.63-.42h0c0,3.33-.18,6.67,0,10,.31,4.7,3.27,7.13,7.73,7.66,4.65.55,8.8-2,9.16-6.49a143.21,143.21,0,0,0,0-21.92c-.34-4.56-4.46-7.08-9-6.75a8.09,8.09,0,0,0-8,8C594.27,683.63,594.45,686.81,594.45,690Z" transform="translate(-285.43 -336.79)"/><path class="cls-2" d="M610.93,738.26l21.52,22L550,842.79l-82.16-82.21c6.64-6.75,13.7-13.93,21.1-21.47l19.91,20c2.12,2.12,4.25,4.23,6.36,6.36,3.33,3.37,7,5.94,11.95,3.69C531.79,767,533,763,533,758.05q-.15-101-.06-201.93c0-6.56,0-6.57,6.48-6.58,7.5,0,15,.23,22.49-.09,4.48-.19,5.54,1.4,5.54,5.72q-.21,100-.1,199.93c0,1.67,0,3.33,0,5,0,4.24,1.73,7.54,5.65,9.17s7.37.71,10.45-2.38c8.1-8.16,16.36-16.16,24.48-24.29A30.44,30.44,0,0,0,610.93,738.26Z" transform="translate(-285.43 -336.79)"/><path class="cls-3" d="M779.89,443.54c9.49,0,18.45-.38,27.36.15,5.16.3,7.18,3.45,7.21,9,.07,11,0,22,0,33q0,109.41,0,218.84a31.45,31.45,0,0,1-.61,7.9c-2.07,7.8-9.73,13.12-17.2,12.29-8.86-1-15.91-8.48-16.72-17.82-.09-1,0-2,0-3V443.54Z" transform="translate(-285.43 -336.79)"/><path d="M329.48,689.86a80.8,80.8,0,0,1-.07,9.47c-.64,5.51-4.3,8.58-9.33,8.34-4.68-.23-8.08-3.62-8.3-8.89-.24-5.81-.25-11.66,0-17.47.23-5.35,3.56-8.61,8.36-8.84s8.43,2.6,9.18,7.92c.44,3.1.08,6.31.08,9.46Z" transform="translate(-285.43 -336.79)"/><path d="M417.68,690.19c0,3.15.17,6.31,0,9.45a8.42,8.42,0,0,1-8.48,8c-4.7.12-8.51-2.74-8.8-7.54a164.49,164.49,0,0,1-.06-19.86c.29-5,4.28-8.07,9.1-7.82s8.06,3.58,8.3,8.77c.13,3,0,6,0,9Z" transform="translate(-285.43 -336.79)"/><path d="M682.62,689.82c0-3.15-.19-6.31,0-9.45a8.23,8.23,0,0,1,8.08-7.9c4.7-.3,8.81,2.46,9.13,7.2a155.69,155.69,0,0,1,0,20.83c-.31,4.71-4.36,7.43-9.11,7.16a8.53,8.53,0,0,1-8.13-7.89,8.22,8.22,0,0,1-.06-1c0-3,0-6,0-9Z" transform="translate(-285.43 -336.79)"/><path d="M726.57,689.93c0-2.83-.15-5.67,0-8.48.34-5.18,3.71-8.67,8.36-9a8.52,8.52,0,0,1,9.42,8.25,126,126,0,0,1-.09,18.94c-.42,5.25-4.26,8.15-9.12,8-4.56-.15-8.17-3.71-8.53-8.75-.22-3,0-6,0-9Z" transform="translate(-285.43 -336.79)"/><path d="M373.69,690.06c0,3,.18,6,0,9a9,9,0,0,1-8.16,8.59c-5,.35-8.86-2.3-9.35-7.6a117.69,117.69,0,0,1-.16-19.42c.39-5.44,4.51-8.5,9.48-8.12,4.61.35,8,3.94,8.24,9.07.16,2.82,0,5.66,0,8.49Z" transform="translate(-285.43 -336.79)"/><path d="M461.79,690.28c0,3.15.23,6.32-.06,9.44a8.25,8.25,0,0,1-8,7.94c-4.65.3-8.79-2.43-9.15-7.17a137.28,137.28,0,0,1,0-20.78c.36-4.72,4.61-7.55,9.11-7.25a8.27,8.27,0,0,1,8.08,7.89C462.05,683.63,461.79,687,461.79,690.28Z" transform="translate(-285.43 -336.79)"/><path d="M656.52,690.58a88.35,88.35,0,0,1-.68,9.78,8.37,8.37,0,0,1-9.19,7.31c-4.53-.26-7.81-3.14-8.06-8a187.74,187.74,0,0,1-.06-19c.24-5.09,3.58-8.08,8.3-8.29s8.24,2.61,9,7.53A95.88,95.88,0,0,1,656.52,690.58Z" transform="translate(-285.43 -336.79)"/><path d="M505.82,690.39c0,3.16.19,6.34-.05,9.48a8.13,8.13,0,0,1-8.15,7.8c-4.61.21-8.53-2.4-8.85-7a166.1,166.1,0,0,1-.07-20.93c.26-4.54,4.15-7.42,8.55-7.37,4.68.05,8.05,3.19,8.59,8,0,.33.07.67.07,1q0,4.49,0,9Z" transform="translate(-285.43 -336.79)"/><path d="M594.45,690c0-3.16-.18-6.34,0-9.49a8.09,8.09,0,0,1,8-8c4.54-.33,8.66,2.19,9,6.75a143.21,143.21,0,0,1,0,21.92c-.36,4.54-4.51,7-9.16,6.49-4.46-.53-7.42-3-7.73-7.66-.23-3.32,0-6.66,0-10Z" transform="translate(-285.43 -336.79)"/><path class="cls-4" d="M302.87,637h7.28q86.49,0,173,0a35.53,35.53,0,0,1,7.44.57,7.42,7.42,0,0,1,6,5.14h18.18q0-48.78,0-97.55c0-11.82,2.3-14.18,13.9-14.18h43c11.43,0,13.87,2.43,13.88,13.7q0,49,0,98h18.2a7.59,7.59,0,0,1,6.05-5.17,32.89,32.89,0,0,1,6.95-.54q69.24,0,138.48,0h6.81V630.4q0-104.74,0-209.47c0-10.74-2.53-13.26-13.23-13.26q-107.73,0-215.47.06c-14.48,0-26.6-4.7-36.76-15-9.47-9.62-19.28-18.91-28.79-28.48a31.47,31.47,0,0,0-23.71-9.69c-42.66.21-85.33.09-128,.09-10.71,0-13.27,2.58-13.27,13.31q0,131.48,0,263Z" transform="translate(-285.43 -336.79)"/><path class="cls-5" d="M762.06,420.93c0-10.74-2.53-13.26-13.23-13.26q-107.73,0-215.47.06H302.84l0,223.19V637h7.28q86.49,0,173,0a35.53,35.53,0,0,1,7.44.57,7.42,7.42,0,0,1,6,5.14h18.18q0-48.78,0-97.55c0-11.82,2.3-14.18,13.9-14.18h43c11.43,0,13.87,2.43,13.88,13.7q0,49,0,98h18.2a7.59,7.59,0,0,1,6.05-5.17,32.89,32.89,0,0,1,6.95-.54q69.24,0,138.48,0h6.81V630.4Q762.06,525.66,762.06,420.93Z" transform="translate(-285.43 -336.79)"/></svg>