<svg id="Cloud" xmlns="http://www.w3.org/2000/svg" viewBox="0 0 347.47 332.66"><defs><style>.cls-1,.cls-5{fill:#407bff;}.cls-2{fill:#263238;}.cls-3{fill:#fff;}.cls-4{fill:#fafafa;opacity:0.8;}.cls-5{font-size:72px;font-family:Brume-Regular, Brume;}.cls-6{letter-spacing:0em;}.cls-7{letter-spacing:0.01em;}.cls-8{letter-spacing:-0.03em;}.cls-9{letter-spacing:0em;}</style></defs><title>freetoss logo</title><path class="cls-1" d="M187,169.67l-.63-.77a65.62,65.62,0,0,1,8.2-5.71l.51.86A65.79,65.79,0,0,0,187,169.67Z" transform="translate(-76.27 -87.03)"/><path class="cls-1" d="M166.47,198.25l-.93-.35a68.71,68.71,0,0,1,15.67-24.35l.71.71A67.91,67.91,0,0,0,166.47,198.25Z" transform="translate(-76.27 -87.03)"/><path class="cls-1" d="M360.21,242.33a53.28,53.28,0,0,0-73.21-49,64.38,64.38,0,0,0-120.7,14.25,55.4,55.4,0,0,0,3.61,110.69H346.23a39.28,39.28,0,0,0,14-76Z" transform="translate(-76.27 -87.03)"/><path class="cls-2" d="M320.55,224.42H179.45a4.34,4.34,0,0,1-4.33-4.33h0a4.35,4.35,0,0,1,4.33-4.34h141.1a4.35,4.35,0,0,1,4.33,4.34h0A4.34,4.34,0,0,1,320.55,224.42Z" transform="translate(-76.27 -87.03)"/><path class="cls-3" d="M299.27,283H200.73a14.56,14.56,0,0,1,0-29.12h98.54a14.56,14.56,0,1,1,0,29.12ZM200.73,254.9a13.56,13.56,0,0,0,0,27.12h98.54a13.56,13.56,0,1,0,0-27.12Z" transform="translate(-76.27 -87.03)"/><path class="cls-3" d="M223.75,279.52h-23a11.1,11.1,0,0,1-11.06-11.06h0a11.09,11.09,0,0,1,11.06-11.06h23a11.09,11.09,0,0,1,11.06,11.06h0A11.1,11.1,0,0,1,223.75,279.52Z" transform="translate(-76.27 -87.03)"/><polygon class="cls-1" points="248.31 53.33 229.61 133.06 117.98 133.06 149.2 0 226.5 18.14 248.31 53.33"/><polygon class="cls-4" points="248.31 53.33 229.61 133.06 117.98 133.06 149.2 0 226.5 18.14 248.31 53.33"/><path class="cls-1" d="M310,155.18l-84.78-19.89a2.27,2.27,0,0,1-1.69-2.73h0a2.26,2.26,0,0,1,2.72-1.69l84.79,19.89a2.28,2.28,0,0,1,1.69,2.73h0A2.29,2.29,0,0,1,310,155.18Z" transform="translate(-76.27 -87.03)"/><path class="cls-1" d="M306.78,169,222,149.08a2.26,2.26,0,0,1-1.69-2.72h0a2.27,2.27,0,0,1,2.73-1.69l84.78,19.89a2.27,2.27,0,0,1,1.69,2.73h0A2.28,2.28,0,0,1,306.78,169Z" transform="translate(-76.27 -87.03)"/><path class="cls-1" d="M303.54,182.78l-84.78-19.9a2.28,2.28,0,0,1-1.69-2.73h0a2.29,2.29,0,0,1,2.73-1.69l84.78,19.9a2.26,2.26,0,0,1,1.69,2.72h0A2.28,2.28,0,0,1,303.54,182.78Z" transform="translate(-76.27 -87.03)"/><path class="cls-1" d="M300.31,196.57l-84.79-19.89a2.28,2.28,0,0,1-1.69-2.73h0a2.29,2.29,0,0,1,2.73-1.69l84.78,19.89a2.29,2.29,0,0,1,1.7,2.73h0A2.27,2.27,0,0,1,300.31,196.57Z" transform="translate(-76.27 -87.03)"/><path class="cls-1" d="M263.36,202.46l-51.07-12a2.27,2.27,0,0,1-1.69-2.73h0a2.28,2.28,0,0,1,2.72-1.69l51.08,12a2.27,2.27,0,0,1,1.69,2.73h0A2.27,2.27,0,0,1,263.36,202.46Z" transform="translate(-76.27 -87.03)"/><polygon class="cls-1" points="248.31 53.33 219.81 46.64 226.5 18.14 248.31 53.33"/><text class="cls-5" transform="translate(0 306.41)"><tspan class="cls-6">F</tspan><tspan x="40.9" y="0">r</tspan><tspan class="cls-7" x="74.59" y="0">e</tspan><tspan x="113.18" y="0">e</tspan><tspan class="cls-8" x="151.05" y="0">T</tspan><tspan class="cls-9" x="197.28" y="0">o</tspan><tspan x="242.28" y="0">ss8</tspan></text><path d="M77.27,403.1h1.79v12.78H77.27Zm.92,6.12h4.09a1.94,1.94,0,0,0,1-.27,1.82,1.82,0,0,0,.68-.77,2.92,2.92,0,0,0,0-2.32,1.82,1.82,0,0,0-.68-.77,1.86,1.86,0,0,0-1-.28H78.19V403.1h4a4.1,4.1,0,0,1,2,.49A3.45,3.45,0,0,1,85.58,405a4.64,4.64,0,0,1,0,4.11,3.34,3.34,0,0,1-1.35,1.36,4,4,0,0,1-2,.49h-4Z" transform="translate(-76.27 -87.03)"/><path d="M90.88,416l-.9-.48a3.23,3.23,0,0,1-1.37-1.39,4.85,4.85,0,0,1-.47-2.22v-1a5.26,5.26,0,0,1,.46-2.31,3.22,3.22,0,0,1,1.31-1.46,4.09,4.09,0,0,1,2.07-.5,3.31,3.31,0,0,1,2,.57,3.57,3.57,0,0,1,1.23,1.65,7.18,7.18,0,0,1,.43,2.6V412H89.44V410.6h4.45a3,3,0,0,0-.57-1.73,1.62,1.62,0,0,0-1.34-.62,1.93,1.93,0,0,0-1.57.66,2.84,2.84,0,0,0-.56,1.89V412a2.36,2.36,0,0,0,.6,1.74,2.23,2.23,0,0,0,1.69.61,2.71,2.71,0,0,0,1.08-.22,3.2,3.2,0,0,0,1-.61l1.18,1.17a4.92,4.92,0,0,1-1.52,1,4.29,4.29,0,0,1-1.7.36Z" transform="translate(-76.27 -87.03)"/><path d="M99,406.76h1.79v9.12H99Zm4.42,1.72a2.17,2.17,0,0,0-.84-.15,1.63,1.63,0,0,0-1.79,1.78l-.18-1.76a3.32,3.32,0,0,1,1.09-1.27,2.55,2.55,0,0,1,1.47-.45,3.35,3.35,0,0,1,1.13.18,2.67,2.67,0,0,1,.89.53L104,408.92A1.56,1.56,0,0,0,103.38,408.48Z" transform="translate(-76.27 -87.03)"/><path d="M110,416l-.71-.16a5.76,5.76,0,0,1-1.32-.48,5.17,5.17,0,0,1-1.14-.79l1.07-1.31a6,6,0,0,0,1.46.85,4.19,4.19,0,0,0,1.45.28,3.07,3.07,0,0,0,1.59-.33,1.1,1.1,0,0,0,.53-1,.77.77,0,0,0-.29-.66,1.56,1.56,0,0,0-.72-.29c-.29-.05-.69-.1-1.21-.14h-.15l-.15,0h-.14a6.45,6.45,0,0,1-1.5-.26,2,2,0,0,1-1-.7,2.38,2.38,0,0,1-.41-1.49,3.07,3.07,0,0,1,.4-1.61,2.36,2.36,0,0,1,1.18-1,5.25,5.25,0,0,1,2-.32,6.58,6.58,0,0,1,1.35.13,5.84,5.84,0,0,1,2.37,1.05l-1.08,1.31a5.26,5.26,0,0,0-1.35-.66,4,4,0,0,0-1.29-.22,2.42,2.42,0,0,0-1.37.31,1.05,1.05,0,0,0-.46.94.62.62,0,0,0,.26.55,1.67,1.67,0,0,0,.65.25c.27,0,.64.07,1.13.1h.33a7.67,7.67,0,0,1,1.63.25,2.2,2.2,0,0,1,1.13.77,2.55,2.55,0,0,1,.46,1.65,2.92,2.92,0,0,1-.42,1.63,2.59,2.59,0,0,1-1.27,1,6,6,0,0,1-2.13.33Z" transform="translate(-76.27 -87.03)"/><path d="M119.24,415.55a3.09,3.09,0,0,1-1.29-1.36,4.85,4.85,0,0,1-.44-2.15v-1.48a4.79,4.79,0,0,1,.44-2.13,3.15,3.15,0,0,1,1.29-1.34,4.71,4.71,0,0,1,4.06,0,3.15,3.15,0,0,1,1.29,1.34,4.65,4.65,0,0,1,.44,2.13v1.51a4.65,4.65,0,0,1-.44,2.13,3.12,3.12,0,0,1-1.29,1.35,4.62,4.62,0,0,1-4.06,0Zm3.49-1.83a2.43,2.43,0,0,0,.51-1.65v-1.51a2.43,2.43,0,0,0-.51-1.65,1.88,1.88,0,0,0-1.46-.58,1.85,1.85,0,0,0-1.45.58,2.38,2.38,0,0,0-.52,1.65v1.51a2.38,2.38,0,0,0,.52,1.65,1.82,1.82,0,0,0,1.45.59A1.85,1.85,0,0,0,122.73,413.72Z" transform="translate(-76.27 -87.03)"/><path d="M128.48,406.76h1.79v9.12h-1.79Zm5.54,3.6a2.11,2.11,0,0,0-.5-1.5,1.86,1.86,0,0,0-1.41-.53,1.89,1.89,0,0,0-1.36.47,1.74,1.74,0,0,0-.48,1.31l-.18-1.76a3.27,3.27,0,0,1,1.1-1.27,2.7,2.7,0,0,1,1.51-.45,2.82,2.82,0,0,1,2.3,1,4.18,4.18,0,0,1,.81,2.75v5.53H134Z" transform="translate(-76.27 -87.03)"/><path d="M139.83,415.32a2.65,2.65,0,0,1-.83-2.13,2.58,2.58,0,0,1,.76-2,3.41,3.41,0,0,1,2.31-.67h2.6l.12,1.44h-2.71a1.51,1.51,0,0,0-1.05.31,1.23,1.23,0,0,0-.35.95,1.18,1.18,0,0,0,.47,1,2.31,2.31,0,0,0,1.4.34,4.2,4.2,0,0,0,1.53-.22.73.73,0,0,0,.51-.69l.18,1.28a2.12,2.12,0,0,1-.58.61,2.5,2.5,0,0,1-.81.36,4,4,0,0,1-1,.12A3.9,3.9,0,0,1,139.83,415.32Zm4.76-5.22a1.91,1.91,0,0,0-.48-1.39,1.8,1.8,0,0,0-1.36-.5,3.57,3.57,0,0,0-1.07.17,3.11,3.11,0,0,0-.93.46l-1.3-.89a3.34,3.34,0,0,1,1.36-1,5,5,0,0,1,1.89-.35,4.31,4.31,0,0,1,1.94.4,2.77,2.77,0,0,1,1.23,1.16,3.75,3.75,0,0,1,.42,1.83v5.86h-1.7Z" transform="translate(-76.27 -87.03)"/><path d="M151.71,413.53a.84.84,0,0,0,.14.51.51.51,0,0,0,.41.18h.85v1.71h-1.06a2,2,0,0,1-1.58-.64,2.6,2.6,0,0,1-.55-1.78V403.1h1.79Z" transform="translate(-76.27 -87.03)"/><path d="M156,403.1h1.79v1.8H156Zm0,3.66h1.79v9.12H156Z" transform="translate(-76.27 -87.03)"/><path d="M167.74,408.27l-4.39,6H168v1.66h-6.8v-1.54l4.5-5.92h-4.37v-1.66h6.43Z" transform="translate(-76.27 -87.03)"/><path d="M173.72,416l-.9-.48a3.2,3.2,0,0,1-1.36-1.39,4.73,4.73,0,0,1-.47-2.22v-1a5.41,5.41,0,0,1,.45-2.31,3.22,3.22,0,0,1,1.31-1.46,4.13,4.13,0,0,1,2.08-.5,3.3,3.3,0,0,1,1.95.57,3.5,3.5,0,0,1,1.23,1.65,7,7,0,0,1,.43,2.6V412h-6.15V410.6h4.44a3,3,0,0,0-.57-1.73,1.6,1.6,0,0,0-1.33-.62,2,2,0,0,0-1.58.66,2.9,2.9,0,0,0-.56,1.89V412a2.36,2.36,0,0,0,.6,1.74,2.25,2.25,0,0,0,1.69.61,2.79,2.79,0,0,0,1.09-.22,3.28,3.28,0,0,0,1-.61l1.18,1.17a4.92,4.92,0,0,1-1.52,1,4.29,4.29,0,0,1-1.7.36Z" transform="translate(-76.27 -87.03)"/><path d="M183,415.61a2.74,2.74,0,0,1-1.07-1.27,4.91,4.91,0,0,1-.37-2v-2a5.05,5.05,0,0,1,.36-2,2.71,2.71,0,0,1,1-1.27,3,3,0,0,1,1.65-.44,2.71,2.71,0,0,1,1.48.42,3.22,3.22,0,0,1,1.09,1.19l-.18,1.86a2.07,2.07,0,0,0-.22-1,1.48,1.48,0,0,0-.61-.63,2,2,0,0,0-1-.21,1.71,1.71,0,0,0-1.37.55,2.26,2.26,0,0,0-.49,1.56v2a2.19,2.19,0,0,0,.49,1.54,1.74,1.74,0,0,0,1.37.54,1.93,1.93,0,0,0,1-.23,1.45,1.45,0,0,0,.61-.64,2.12,2.12,0,0,0,.22-1l.12,1.92a2.57,2.57,0,0,1-.89,1.13,2.5,2.5,0,0,1-1.53.46A3.19,3.19,0,0,1,183,415.61Zm4-12.51h1.79v12.78H187Z" transform="translate(-76.27 -87.03)"/><path d="M198.31,403.1h1.8v12.78h-1.8Zm1.22,11.08h2.89a3.07,3.07,0,0,0,2.19-.74,2.67,2.67,0,0,0,.78-2.06v-3.77a2.71,2.71,0,0,0-.78-2.07,3.07,3.07,0,0,0-2.19-.73h-2.89V403.1h2.83a5.84,5.84,0,0,1,2.63.54,3.71,3.71,0,0,1,1.66,1.57,5,5,0,0,1,.58,2.47v3.62a5,5,0,0,1-.58,2.48,3.71,3.71,0,0,1-1.66,1.57,5.91,5.91,0,0,1-2.63.53h-2.83Z" transform="translate(-76.27 -87.03)"/><path d="M212.32,415.55a3,3,0,0,1-1.29-1.36,4.71,4.71,0,0,1-.44-2.15v-1.48a4.65,4.65,0,0,1,.44-2.13,3.09,3.09,0,0,1,1.29-1.34,4.71,4.71,0,0,1,4.06,0,3.15,3.15,0,0,1,1.29,1.34,4.79,4.79,0,0,1,.44,2.13v1.51a4.79,4.79,0,0,1-.44,2.13,3.12,3.12,0,0,1-1.29,1.35,4.62,4.62,0,0,1-4.06,0Zm3.48-1.83a2.38,2.38,0,0,0,.52-1.65v-1.51a2.38,2.38,0,0,0-.52-1.65,1.86,1.86,0,0,0-1.45-.58,1.88,1.88,0,0,0-1.46.58,2.43,2.43,0,0,0-.51,1.65v1.51a2.43,2.43,0,0,0,.51,1.65,1.85,1.85,0,0,0,1.46.59A1.83,1.83,0,0,0,215.8,413.72Z" transform="translate(-76.27 -87.03)"/><path d="M224,416l-.88-.47a3.14,3.14,0,0,1-1.35-1.35,4.61,4.61,0,0,1-.47-2.15v-1.5a4.48,4.48,0,0,1,.47-2.12,3.12,3.12,0,0,1,1.35-1.34,4.53,4.53,0,0,1,2.13-.46,5.23,5.23,0,0,1,1.34.17,4,4,0,0,1,1.13.5,3.16,3.16,0,0,1,.84.79l-1.3,1.16a2.71,2.71,0,0,0-.9-.68,2.57,2.57,0,0,0-1.08-.24,2.19,2.19,0,0,0-1.61.58,2.26,2.26,0,0,0-.57,1.64v1.5a2.34,2.34,0,0,0,.56,1.67,2.16,2.16,0,0,0,1.62.59,2.45,2.45,0,0,0,1.09-.25,2.58,2.58,0,0,0,.89-.73l1.3,1.25a3,3,0,0,1-.85.78,3.72,3.72,0,0,1-1.13.49,5.21,5.21,0,0,1-1.33.17Z" transform="translate(-76.27 -87.03)"/><path d="M231.42,403.1h1.8v12.78h-1.8Zm.78,9.32,4.69-5.66H239l-6.92,7.79Zm2.11-1.8,1.16-1.2,4,6.46H237.5Z" transform="translate(-76.27 -87.03)"/><path d="M246.87,406.76h4.56v1.53h-4.56Zm1-1.24a2.58,2.58,0,0,1,.56-1.81,2.23,2.23,0,0,1,1.72-.61h1.31v1.71h-1.28a.44.44,0,0,0-.39.19,1,1,0,0,0-.13.5v10.38h-1.79Z" transform="translate(-76.27 -87.03)"/><path d="M255.38,415.55a3,3,0,0,1-1.28-1.36,4.71,4.71,0,0,1-.45-2.15v-1.48a4.65,4.65,0,0,1,.45-2.13,3.07,3.07,0,0,1,1.28-1.34,4.17,4.17,0,0,1,2-.46,4.12,4.12,0,0,1,2,.46,3,3,0,0,1,1.29,1.34,4.65,4.65,0,0,1,.45,2.13v1.51a4.65,4.65,0,0,1-.45,2.13,3,3,0,0,1-1.29,1.35,4.12,4.12,0,0,1-2,.47A4.17,4.17,0,0,1,255.38,415.55Zm3.49-1.83a2.43,2.43,0,0,0,.51-1.65v-1.51a2.43,2.43,0,0,0-.51-1.65,2.12,2.12,0,0,0-2.91,0,2.43,2.43,0,0,0-.51,1.65v1.51a2.43,2.43,0,0,0,.51,1.65,2.09,2.09,0,0,0,2.91,0Z" transform="translate(-76.27 -87.03)"/><path d="M264.62,406.76h1.8v9.12h-1.8Zm4.43,1.72a2.17,2.17,0,0,0-.84-.15,1.79,1.79,0,0,0-1.32.47,1.75,1.75,0,0,0-.47,1.31l-.19-1.76a3.41,3.41,0,0,1,1.09-1.27,2.61,2.61,0,0,1,1.48-.45,3.35,3.35,0,0,1,1.13.18,2.53,2.53,0,0,1,.88.53l-1.17,1.58A1.53,1.53,0,0,0,269.05,408.48Z" transform="translate(-76.27 -87.03)"/><path d="M278,406.76h1.83l2.8,7.93-1,1.94Zm8.08,0L282.17,418a2.83,2.83,0,0,1-.56,1,1.93,1.93,0,0,1-.84.52,4,4,0,0,1-1.23.16h-.36V418h.36a1.32,1.32,0,0,0,.79-.21,1.56,1.56,0,0,0,.52-.69l3.37-10.31Z" transform="translate(-76.27 -87.03)"/><path d="M289.82,415.55a3,3,0,0,1-1.28-1.36,4.71,4.71,0,0,1-.45-2.15v-1.48a4.65,4.65,0,0,1,.45-2.13,3.07,3.07,0,0,1,1.28-1.34,4.73,4.73,0,0,1,4.07,0,3.07,3.07,0,0,1,1.28,1.34,4.65,4.65,0,0,1,.45,2.13v1.51a4.65,4.65,0,0,1-.45,2.13,3,3,0,0,1-1.28,1.35,4.64,4.64,0,0,1-4.07,0Zm3.49-1.83a2.43,2.43,0,0,0,.51-1.65v-1.51a2.43,2.43,0,0,0-.51-1.65,2.12,2.12,0,0,0-2.91,0,2.43,2.43,0,0,0-.51,1.65v1.51a2.43,2.43,0,0,0,.51,1.65,2.09,2.09,0,0,0,2.91,0Z" transform="translate(-76.27 -87.03)"/><path d="M300.64,412.31a2.07,2.07,0,0,0,.49,1.48,1.76,1.76,0,0,0,1.37.52,1.83,1.83,0,0,0,1.36-.47,1.72,1.72,0,0,0,.49-1.32l.12,1.9A2.57,2.57,0,0,1,302,416a2.88,2.88,0,0,1-2.33-1,4.08,4.08,0,0,1-.82-2.73v-5.55h1.79Zm3.71-5.55h1.78v9.12h-1.78Z" transform="translate(-76.27 -87.03)"/><path d="M309.76,406.76h1.79v9.12h-1.79Zm4.42,1.72a2.17,2.17,0,0,0-.84-.15,1.63,1.63,0,0,0-1.79,1.78l-.19-1.76a3.5,3.5,0,0,1,1.09-1.27,2.61,2.61,0,0,1,1.48-.45,3.35,3.35,0,0,1,1.13.18,2.53,2.53,0,0,1,.88.53l-1.17,1.58A1.46,1.46,0,0,0,314.18,408.48Z" transform="translate(-76.27 -87.03)"/><path d="M324.25,403.1H326v12.78h-1.79Zm.78,5.67h4.36a1.62,1.62,0,0,0,1.52-.94,2.44,2.44,0,0,0,.21-1,2.41,2.41,0,0,0-.21-1,1.62,1.62,0,0,0-.61-.7,1.64,1.64,0,0,0-.91-.25H325v-1.7h4.29a4.07,4.07,0,0,1,1.95.45,3.25,3.25,0,0,1,1.3,1.3,4,4,0,0,1,.46,1.94,4,4,0,0,1-.47,1.94,3.17,3.17,0,0,1-1.3,1.29,4,4,0,0,1-1.94.46H325Zm3.48,1.31,1.78-.4,3.27,6.2h-2.12Z" transform="translate(-76.27 -87.03)"/><path d="M338.82,416l-.89-.48a3.17,3.17,0,0,1-1.37-1.39,4.85,4.85,0,0,1-.47-2.22v-1a5.41,5.41,0,0,1,.45-2.31,3.18,3.18,0,0,1,1.32-1.46,4.07,4.07,0,0,1,2.07-.5,3.3,3.3,0,0,1,1.95.57,3.58,3.58,0,0,1,1.24,1.65,7.19,7.19,0,0,1,.42,2.6V412h-6.15V410.6h4.45a3,3,0,0,0-.58-1.73,1.59,1.59,0,0,0-1.33-.62,2,2,0,0,0-1.58.66,2.9,2.9,0,0,0-.55,1.89V412a2.35,2.35,0,0,0,.59,1.74,2.27,2.27,0,0,0,1.7.61,2.78,2.78,0,0,0,1.08-.22,3.2,3.2,0,0,0,1-.61l1.18,1.17a5,5,0,0,1-1.52,1,4.33,4.33,0,0,1-1.7.36Z" transform="translate(-76.27 -87.03)"/><path d="M349.32,416l-.71-.16a5.76,5.76,0,0,1-1.32-.48,4.89,4.89,0,0,1-1.13-.79l1.06-1.31a5.86,5.86,0,0,0,1.47.85,4.13,4.13,0,0,0,1.44.28,3.11,3.11,0,0,0,1.6-.33,1.1,1.1,0,0,0,.53-1,.79.79,0,0,0-.29-.66,1.66,1.66,0,0,0-.72-.29c-.29-.05-.7-.1-1.22-.14h-.15l-.15,0h-.14a6.45,6.45,0,0,1-1.5-.26,2,2,0,0,1-1-.7,2.32,2.32,0,0,1-.41-1.49,3.07,3.07,0,0,1,.39-1.61,2.41,2.41,0,0,1,1.18-1,5.29,5.29,0,0,1,2-.32,6.61,6.61,0,0,1,1.36.13,6,6,0,0,1,2.37,1.05l-1.08,1.31a5.59,5.59,0,0,0-1.35-.66,4,4,0,0,0-1.3-.22,2.44,2.44,0,0,0-1.37.31,1.08,1.08,0,0,0-.46.94.64.64,0,0,0,.26.55,1.72,1.72,0,0,0,.66.25c.26,0,.64.07,1.12.1h.34a7.67,7.67,0,0,1,1.63.25,2.28,2.28,0,0,1,1.13.77,2.62,2.62,0,0,1,.45,1.65,2.92,2.92,0,0,1-.42,1.63,2.54,2.54,0,0,1-1.27,1,5.88,5.88,0,0,1-2.13.33Z" transform="translate(-76.27 -87.03)"/><path d="M358.61,415.55a3,3,0,0,1-1.29-1.36,4.71,4.71,0,0,1-.45-2.15v-1.48a4.65,4.65,0,0,1,.45-2.13,3,3,0,0,1,1.29-1.34,4.71,4.71,0,0,1,4.06,0,3.07,3.07,0,0,1,1.28,1.34,4.65,4.65,0,0,1,.45,2.13v1.51a4.65,4.65,0,0,1-.45,2.13,3,3,0,0,1-1.28,1.35,4.62,4.62,0,0,1-4.06,0Zm3.48-1.83a2.43,2.43,0,0,0,.51-1.65v-1.51a2.43,2.43,0,0,0-.51-1.65,2.12,2.12,0,0,0-2.91,0,2.43,2.43,0,0,0-.51,1.65v1.51a2.43,2.43,0,0,0,.51,1.65,2.09,2.09,0,0,0,2.91,0Z" transform="translate(-76.27 -87.03)"/><path d="M369.42,412.31a2.07,2.07,0,0,0,.49,1.48,1.76,1.76,0,0,0,1.37.52,1.87,1.87,0,0,0,1.37-.47,1.75,1.75,0,0,0,.48-1.32l.12,1.9a2.57,2.57,0,0,1-2.47,1.6,2.88,2.88,0,0,1-2.33-1,4.08,4.08,0,0,1-.82-2.73v-5.55h1.79Zm3.71-5.55h1.78v9.12h-1.78Z" transform="translate(-76.27 -87.03)"/><path d="M378.54,406.76h1.79v9.12h-1.79Zm4.42,1.72a2.17,2.17,0,0,0-.84-.15,1.63,1.63,0,0,0-1.79,1.78l-.18-1.76a3.32,3.32,0,0,1,1.09-1.27,2.55,2.55,0,0,1,1.47-.45,3.35,3.35,0,0,1,1.13.18,2.67,2.67,0,0,1,.89.53l-1.17,1.58A1.56,1.56,0,0,0,383,408.48Z" transform="translate(-76.27 -87.03)"/><path d="M389.38,416l-.88-.47a3.14,3.14,0,0,1-1.35-1.35,4.61,4.61,0,0,1-.47-2.15v-1.5a4.48,4.48,0,0,1,.47-2.12,3.12,3.12,0,0,1,1.35-1.34,4.47,4.47,0,0,1,2.13-.46,5.29,5.29,0,0,1,1.34.17,4.13,4.13,0,0,1,1.13.5,3,3,0,0,1,.83.79l-1.29,1.16a2.75,2.75,0,0,0-.91-.68,2.51,2.51,0,0,0-1.08-.24,2.2,2.2,0,0,0-1.61.58,2.26,2.26,0,0,0-.57,1.64v1.5a2.3,2.3,0,0,0,.57,1.67,2.15,2.15,0,0,0,1.61.59,2.42,2.42,0,0,0,1.09-.25,2.53,2.53,0,0,0,.9-.73l1.29,1.25a3.13,3.13,0,0,1-.84.78,3.83,3.83,0,0,1-1.13.49,5.21,5.21,0,0,1-1.33.17Z" transform="translate(-76.27 -87.03)"/><path d="M399.28,416l-.9-.48a3.15,3.15,0,0,1-1.36-1.39,4.73,4.73,0,0,1-.48-2.22v-1a5.4,5.4,0,0,1,.46-2.31,3.22,3.22,0,0,1,1.31-1.46,4.13,4.13,0,0,1,2.08-.5,3.3,3.3,0,0,1,1.95.57,3.5,3.5,0,0,1,1.23,1.65,7,7,0,0,1,.43,2.6V412h-6.15V410.6h4.44a3,3,0,0,0-.57-1.73,1.6,1.6,0,0,0-1.33-.62,2,2,0,0,0-1.58.66,2.9,2.9,0,0,0-.56,1.89V412a2.36,2.36,0,0,0,.6,1.74,2.25,2.25,0,0,0,1.69.61,2.79,2.79,0,0,0,1.09-.22,3.28,3.28,0,0,0,.95-.61l1.18,1.17a4.92,4.92,0,0,1-1.52,1,4.29,4.29,0,0,1-1.7.36Z" transform="translate(-76.27 -87.03)"/><path d="M409.78,416l-.71-.16a5.76,5.76,0,0,1-1.32-.48,5.17,5.17,0,0,1-1.14-.79l1.07-1.31a6,6,0,0,0,1.46.85,4.18,4.18,0,0,0,1.44.28,3.08,3.08,0,0,0,1.6-.33,1.1,1.1,0,0,0,.53-1,.79.79,0,0,0-.29-.66,1.56,1.56,0,0,0-.72-.29c-.29-.05-.69-.1-1.21-.14h-.15l-.15,0h-.14a6.45,6.45,0,0,1-1.5-.26,2,2,0,0,1-1-.7,2.38,2.38,0,0,1-.41-1.49,3,3,0,0,1,.4-1.61,2.32,2.32,0,0,1,1.18-1,5.25,5.25,0,0,1,2-.32,6.58,6.58,0,0,1,1.35.13,6.39,6.39,0,0,1,1.24.39,6.16,6.16,0,0,1,1.13.66l-1.08,1.31a5.59,5.59,0,0,0-1.35-.66,4,4,0,0,0-1.29-.22,2.47,2.47,0,0,0-1.38.31,1.07,1.07,0,0,0-.45.94.62.62,0,0,0,.26.55,1.67,1.67,0,0,0,.65.25c.27,0,.64.07,1.13.1h.33a7.67,7.67,0,0,1,1.63.25,2.2,2.2,0,0,1,1.13.77,2.55,2.55,0,0,1,.46,1.65,2.92,2.92,0,0,1-.42,1.63,2.63,2.63,0,0,1-1.27,1,6,6,0,0,1-2.14.33Z" transform="translate(-76.27 -87.03)"/><path d="M417.68,414h1.88v1.88h-1.88Zm0-10.9h1.8v9.51h-1.8Z" transform="translate(-76.27 -87.03)"/></svg>