<svg id="Cloud" xmlns="http://www.w3.org/2000/svg" viewBox="0 0 271.01 231.28"><defs><style>.cls-1{fill:#407bff;}.cls-2{fill:#263238;}.cls-3{fill:#fff;}.cls-4{fill:#fafafa;opacity:0.8;}</style></defs><title>freetossicon</title><path class="cls-1" d="M187,169.67l-.63-.77a65.62,65.62,0,0,1,8.2-5.71l.51.86A65.79,65.79,0,0,0,187,169.67Z" transform="translate(-114.49 -87.03)"/><path class="cls-1" d="M166.47,198.25l-.93-.35a68.71,68.71,0,0,1,15.67-24.35l.71.71A67.91,67.91,0,0,0,166.47,198.25Z" transform="translate(-114.49 -87.03)"/><path class="cls-1" d="M360.21,242.33a53.28,53.28,0,0,0-73.21-49,64.38,64.38,0,0,0-120.7,14.25,55.4,55.4,0,0,0,3.61,110.69H346.23a39.28,39.28,0,0,0,14-76Z" transform="translate(-114.49 -87.03)"/><path class="cls-2" d="M320.55,224.42H179.45a4.34,4.34,0,0,1-4.33-4.33h0a4.35,4.35,0,0,1,4.33-4.34h141.1a4.35,4.35,0,0,1,4.33,4.34h0A4.34,4.34,0,0,1,320.55,224.42Z" transform="translate(-114.49 -87.03)"/><path class="cls-3" d="M299.27,283H200.73a14.56,14.56,0,0,1,0-29.12h98.54a14.56,14.56,0,1,1,0,29.12ZM200.73,254.9a13.56,13.56,0,0,0,0,27.12h98.54a13.56,13.56,0,1,0,0-27.12Z" transform="translate(-114.49 -87.03)"/><path class="cls-3" d="M223.75,279.52h-23a11.1,11.1,0,0,1-11.06-11.06h0a11.09,11.09,0,0,1,11.06-11.06h23a11.09,11.09,0,0,1,11.06,11.06h0A11.1,11.1,0,0,1,223.75,279.52Z" transform="translate(-114.49 -87.03)"/><polygon class="cls-1" points="210.09 53.33 191.38 133.06 79.76 133.06 110.98 0 188.27 18.14 210.09 53.33"/><polygon class="cls-4" points="210.09 53.33 191.38 133.06 79.76 133.06 110.98 0 188.27 18.14 210.09 53.33"/><path class="cls-1" d="M310,155.18l-84.78-19.89a2.27,2.27,0,0,1-1.69-2.73h0a2.26,2.26,0,0,1,2.72-1.69l84.79,19.89a2.28,2.28,0,0,1,1.69,2.73h0A2.29,2.29,0,0,1,310,155.18Z" transform="translate(-114.49 -87.03)"/><path class="cls-1" d="M306.78,169,222,149.08a2.26,2.26,0,0,1-1.69-2.72h0a2.27,2.27,0,0,1,2.73-1.69l84.78,19.89a2.27,2.27,0,0,1,1.69,2.73h0A2.28,2.28,0,0,1,306.78,169Z" transform="translate(-114.49 -87.03)"/><path class="cls-1" d="M303.54,182.78l-84.78-19.9a2.28,2.28,0,0,1-1.69-2.73h0a2.29,2.29,0,0,1,2.73-1.69l84.78,19.9a2.26,2.26,0,0,1,1.69,2.72h0A2.28,2.28,0,0,1,303.54,182.78Z" transform="translate(-114.49 -87.03)"/><path class="cls-1" d="M300.31,196.57l-84.79-19.89a2.28,2.28,0,0,1-1.69-2.73h0a2.29,2.29,0,0,1,2.73-1.69l84.78,19.89a2.29,2.29,0,0,1,1.7,2.73h0A2.27,2.27,0,0,1,300.31,196.57Z" transform="translate(-114.49 -87.03)"/><path class="cls-1" d="M263.36,202.46l-51.07-12a2.27,2.27,0,0,1-1.69-2.73h0a2.28,2.28,0,0,1,2.72-1.69l51.08,12a2.27,2.27,0,0,1,1.69,2.73h0A2.27,2.27,0,0,1,263.36,202.46Z" transform="translate(-114.49 -87.03)"/><polygon class="cls-1" points="210.09 53.33 181.58 46.64 188.27 18.14 210.09 53.33"/></svg>