<svg id="Cloud" xmlns="http://www.w3.org/2000/svg" viewBox="0 0 992.22 239.83"><defs><style>.cls-1,.cls-5{fill:#407bff;}.cls-2{fill:#263238;}.cls-3{fill:#fff;}.cls-4{fill:#fafafa;opacity:0.8;}.cls-5{font-size:136.69px;font-family:Brume-Regular, Brume;}.cls-6{letter-spacing:0em;}.cls-7{letter-spacing:0em;}.cls-8{letter-spacing:0.01em;}.cls-9{letter-spacing:-0.03em;}.cls-10{letter-spacing:0em;}</style></defs><title>Free Toss 8 Logo Horizontal</title><path class="cls-1" d="M135.89,215.78l-.65-.8a68.75,68.75,0,0,1,8.51-5.92l.53.89A67.84,67.84,0,0,0,135.89,215.78Z" transform="translate(-60.7 -130.09)"/><path class="cls-1" d="M114.6,245.42l-1-.37a71.34,71.34,0,0,1,16.25-25.24l.74.73A70.29,70.29,0,0,0,114.6,245.42Z" transform="translate(-60.7 -130.09)"/><path class="cls-1" d="M315.5,291.12a55.24,55.24,0,0,0-75.92-50.76,66.76,66.76,0,0,0-125.16,14.77,57.45,57.45,0,0,0,3.74,114.78H301a40.73,40.73,0,0,0,14.51-78.79Z" transform="translate(-60.7 -130.09)"/><path class="cls-2" d="M274.37,272.55H128.06a4.51,4.51,0,0,1-4.5-4.49h0a4.52,4.52,0,0,1,4.5-4.5H274.37a4.51,4.51,0,0,1,4.49,4.5h0A4.5,4.5,0,0,1,274.37,272.55Z" transform="translate(-60.7 -130.09)"/><path class="cls-3" d="M252.3,333.31H150.13a15.1,15.1,0,1,1,0-30.19H252.3a15.1,15.1,0,1,1,0,30.19ZM150.13,304.15a14.07,14.07,0,0,0,0,28.13H252.3a14.07,14.07,0,0,0,0-28.13Z" transform="translate(-60.7 -130.09)"/><path class="cls-3" d="M174,329.68H150.13a11.5,11.5,0,0,1-11.47-11.46h0a11.5,11.5,0,0,1,11.47-11.47H174a11.5,11.5,0,0,1,11.47,11.47h0A11.5,11.5,0,0,1,174,329.68Z" transform="translate(-60.7 -130.09)"/><polygon class="cls-1" points="217.85 55.3 198.45 137.97 82.7 137.97 115.08 0 195.22 18.8 217.85 55.3"/><polygon class="cls-4" points="217.85 55.3 198.45 137.97 82.7 137.97 115.08 0 195.22 18.8 217.85 55.3"/><path class="cls-1" d="M263.45,200.75l-87.91-20.62a2.37,2.37,0,0,1-1.76-2.83h0a2.37,2.37,0,0,1,2.83-1.76l87.92,20.63a2.36,2.36,0,0,1,1.75,2.83h0A2.36,2.36,0,0,1,263.45,200.75Z" transform="translate(-60.7 -130.09)"/><path class="cls-1" d="M260.09,215.06l-87.91-20.63a2.37,2.37,0,0,1-1.76-2.83h0a2.36,2.36,0,0,1,2.83-1.75l87.92,20.63a2.35,2.35,0,0,1,1.75,2.83h0A2.35,2.35,0,0,1,260.09,215.06Z" transform="translate(-60.7 -130.09)"/><path class="cls-1" d="M256.74,229.37l-87.92-20.63a2.35,2.35,0,0,1-1.75-2.83h0a2.35,2.35,0,0,1,2.83-1.75l87.91,20.63a2.37,2.37,0,0,1,1.76,2.83h0A2.36,2.36,0,0,1,256.74,229.37Z" transform="translate(-60.7 -130.09)"/><path class="cls-1" d="M253.38,243.68l-87.92-20.63a2.36,2.36,0,0,1-1.75-2.83h0a2.36,2.36,0,0,1,2.83-1.75l87.91,20.62a2.37,2.37,0,0,1,1.76,2.83h0A2.37,2.37,0,0,1,253.38,243.68Z" transform="translate(-60.7 -130.09)"/><path class="cls-1" d="M215.07,249.79l-53-12.43a2.37,2.37,0,0,1-1.76-2.83h0a2.36,2.36,0,0,1,2.83-1.75l53,12.42A2.36,2.36,0,0,1,217.9,248h0A2.37,2.37,0,0,1,215.07,249.79Z" transform="translate(-60.7 -130.09)"/><polygon class="cls-1" points="217.85 55.3 188.29 48.36 195.22 18.8 217.85 55.3"/><text class="cls-5" transform="translate(332.56 152.15)"><tspan class="cls-6">F</tspan><tspan class="cls-7" x="77.64" y="0">r</tspan><tspan class="cls-8" x="141.61" y="0">e</tspan><tspan x="214.88" y="0">e</tspan><tspan class="cls-9" x="286.77" y="0">T</tspan><tspan class="cls-10" x="374.53" y="0">o</tspan><tspan class="cls-7" x="459.96" y="0">ss8</tspan></text><path d="M395.16,300.58h3.41v24.26h-3.41Zm1.75,11.62h7.76a3.65,3.65,0,0,0,1.94-.52,3.49,3.49,0,0,0,1.29-1.47,4.89,4.89,0,0,0,.46-2.18,5,5,0,0,0-.46-2.21,3.49,3.49,0,0,0-1.29-1.47,3.57,3.57,0,0,0-1.94-.53h-7.76v-3.24h7.65a7.66,7.66,0,0,1,3.82.93,6.5,6.5,0,0,1,2.56,2.61,8.81,8.81,0,0,1,0,7.8,6.47,6.47,0,0,1-2.56,2.6,7.76,7.76,0,0,1-3.82.91h-7.65Z" transform="translate(-60.7 -130.09)"/><path d="M421,325.09l-1.7-.9a6,6,0,0,1-2.6-2.64,9.22,9.22,0,0,1-.89-4.21v-2a10.21,10.21,0,0,1,.86-4.38,6.06,6.06,0,0,1,2.49-2.77,7.67,7.67,0,0,1,3.94-1,6.25,6.25,0,0,1,3.7,1.09,6.69,6.69,0,0,1,2.35,3.14,13.34,13.34,0,0,1,.81,4.92v1.13H418.28v-2.73h8.44a5.83,5.83,0,0,0-1.09-3.3,3.09,3.09,0,0,0-2.53-1.18,3.68,3.68,0,0,0-3,1.27,5.43,5.43,0,0,0-1.06,3.59v2.2a4.51,4.51,0,0,0,1.13,3.31,4.35,4.35,0,0,0,3.22,1.15,5.33,5.33,0,0,0,2.05-.42,5.91,5.91,0,0,0,1.82-1.17l2.24,2.24a9.5,9.5,0,0,1-2.89,1.91,8.23,8.23,0,0,1-3.22.67Z" transform="translate(-60.7 -130.09)"/><path d="M436.34,307.52h3.4v17.32h-3.4Zm8.39,3.27a4.25,4.25,0,0,0-1.58-.28,3.4,3.4,0,0,0-2.51.89,3.36,3.36,0,0,0-.9,2.48l-.35-3.34a6.55,6.55,0,0,1,2.07-2.41,4.93,4.93,0,0,1,2.81-.86,6.32,6.32,0,0,1,2.14.35,4.63,4.63,0,0,1,1.68,1l-2.22,3A2.83,2.83,0,0,0,444.73,310.79Z" transform="translate(-60.7 -130.09)"/><path d="M457.22,325.09s-.45-.09-1.34-.3a10.25,10.25,0,0,1-2.51-.9,10,10,0,0,1-2.16-1.5l2-2.48a11.58,11.58,0,0,0,2.79,1.6,7.65,7.65,0,0,0,2.73.53,5.91,5.91,0,0,0,3-.62,2.06,2.06,0,0,0,1-1.88,1.46,1.46,0,0,0-.55-1.25,3,3,0,0,0-1.37-.56c-.54-.1-1.31-.18-2.3-.26h-.28l-.29,0h-.26a13.51,13.51,0,0,1-2.86-.49,3.87,3.87,0,0,1-1.94-1.35,4.43,4.43,0,0,1-.78-2.82,5.63,5.63,0,0,1,.76-3.05,4.59,4.59,0,0,1,2.23-1.83,10,10,0,0,1,3.72-.61,13.44,13.44,0,0,1,2.58.25,11.42,11.42,0,0,1,2.34.75,11.69,11.69,0,0,1,2.16,1.24L463.89,312a10.77,10.77,0,0,0-2.56-1.25,7.75,7.75,0,0,0-2.46-.42,4.67,4.67,0,0,0-2.6.59,2,2,0,0,0-.87,1.78,1.2,1.2,0,0,0,.49,1.05,3,3,0,0,0,1.25.47c.5.07,1.21.14,2.13.2h.21l.23,0h.1l.1,0A14.55,14.55,0,0,1,463,315a4.19,4.19,0,0,1,2.15,1.45,5,5,0,0,1,.86,3.14,5.48,5.48,0,0,1-.8,3.09,4.82,4.82,0,0,1-2.41,1.85,11.44,11.44,0,0,1-4.05.61Z" transform="translate(-60.7 -130.09)"/><path d="M474.85,324.21a5.83,5.83,0,0,1-2.45-2.58,9.11,9.11,0,0,1-.84-4.08v-2.82a8.94,8.94,0,0,1,.84-4,5.76,5.76,0,0,1,2.45-2.55,8.88,8.88,0,0,1,7.71,0A5.79,5.79,0,0,1,485,310.7a8.94,8.94,0,0,1,.84,4v2.87a9,9,0,0,1-.84,4,5.87,5.87,0,0,1-2.44,2.56,8.88,8.88,0,0,1-7.71,0Zm6.61-3.47a4.61,4.61,0,0,0,1-3.14v-2.87a4.58,4.58,0,0,0-1-3.12,4,4,0,0,0-5.52,0,4.58,4.58,0,0,0-1,3.12v2.87a4.61,4.61,0,0,0,1,3.14,4,4,0,0,0,5.52,0Z" transform="translate(-60.7 -130.09)"/><path d="M492.39,307.52h3.4v17.32h-3.4Zm10.51,6.83a4,4,0,0,0-.95-2.84,3.48,3.48,0,0,0-2.67-1,3.56,3.56,0,0,0-2.58.89,3.32,3.32,0,0,0-.91,2.48l-.35-3.34a6.22,6.22,0,0,1,2.1-2.41,5.06,5.06,0,0,1,2.86-.86,5.37,5.37,0,0,1,4.36,1.85,7.9,7.9,0,0,1,1.55,5.21v10.51H502.9Z" transform="translate(-60.7 -130.09)"/><path d="M513.94,323.77a5,5,0,0,1-1.59-4,4.9,4.9,0,0,1,1.46-3.86,6.47,6.47,0,0,1,4.38-1.28h4.93l.23,2.74h-5.14a2.87,2.87,0,0,0-2,.59,2.31,2.31,0,0,0-.66,1.81,2.25,2.25,0,0,0,.87,1.95,4.59,4.59,0,0,0,2.67.64,7.64,7.64,0,0,0,2.91-.42,1.37,1.37,0,0,0,1-1.3l.35,2.43a3.93,3.93,0,0,1-1.11,1.15,4.85,4.85,0,0,1-1.53.68,7.81,7.81,0,0,1-1.95.22A7.36,7.36,0,0,1,513.94,323.77Zm9-9.9a3.69,3.69,0,0,0-.91-2.65,3.42,3.42,0,0,0-2.58-.94,6.67,6.67,0,0,0-2,.31,6.2,6.2,0,0,0-1.76.89l-2.48-1.7a6.48,6.48,0,0,1,2.59-1.85,9.36,9.36,0,0,1,3.58-.66,8.37,8.37,0,0,1,3.69.76,5.25,5.25,0,0,1,2.33,2.21,7,7,0,0,1,.8,3.47v11.13H523Z" transform="translate(-60.7 -130.09)"/><path d="M536.49,320.37a1.55,1.55,0,0,0,.27,1,1,1,0,0,0,.78.34h1.6v3.24h-2a3.8,3.8,0,0,1-3-1.2,5,5,0,0,1-1.06-3.39V300.58h3.41Z" transform="translate(-60.7 -130.09)"/><path d="M544.69,300.58h3.4V304h-3.4Zm0,6.94h3.4v17.32h-3.4Z" transform="translate(-60.7 -130.09)"/><path d="M566.92,310.39l-8.33,11.3h8.78v3.15h-12.9v-2.93L563,310.68h-8.31v-3.16h12.21Z" transform="translate(-60.7 -130.09)"/><path d="M578.27,325.09l-1.7-.9a6,6,0,0,1-2.59-2.64,9.09,9.09,0,0,1-.9-4.21v-2a10.21,10.21,0,0,1,.86-4.38,6.14,6.14,0,0,1,2.5-2.77,7.64,7.64,0,0,1,3.94-1,6.27,6.27,0,0,1,3.7,1.09,6.74,6.74,0,0,1,2.34,3.14,13.34,13.34,0,0,1,.81,4.92v1.13H575.55v-2.73H584a5.83,5.83,0,0,0-1.1-3.3,3.08,3.08,0,0,0-2.52-1.18,3.71,3.71,0,0,0-3,1.27,5.43,5.43,0,0,0-1.06,3.59v2.2a4.51,4.51,0,0,0,1.14,3.31,4.34,4.34,0,0,0,3.22,1.15,5.33,5.33,0,0,0,2.05-.42,6,6,0,0,0,1.82-1.17l2.23,2.24a9.46,9.46,0,0,1-2.88,1.91,8.26,8.26,0,0,1-3.22.67Z" transform="translate(-60.7 -130.09)"/><path d="M595.86,324.32a5.24,5.24,0,0,1-2.05-2.41,9.53,9.53,0,0,1-.7-3.81v-3.82a9.55,9.55,0,0,1,.69-3.82,5.14,5.14,0,0,1,2-2.41,5.78,5.78,0,0,1,3.15-.83,5.14,5.14,0,0,1,2.81.81,5.84,5.84,0,0,1,2.06,2.25l-.35,3.54a4.06,4.06,0,0,0-.4-1.89,2.78,2.78,0,0,0-1.16-1.19,3.78,3.78,0,0,0-1.85-.41,3.3,3.3,0,0,0-2.61,1.05,4.34,4.34,0,0,0-.92,2.95v3.77a4.26,4.26,0,0,0,.92,2.92,3.35,3.35,0,0,0,2.61,1,3.78,3.78,0,0,0,1.85-.42,2.93,2.93,0,0,0,1.16-1.23,4.19,4.19,0,0,0,.4-1.92l.23,3.66a5,5,0,0,1-1.69,2.15,4.75,4.75,0,0,1-2.9.87A6.07,6.07,0,0,1,595.86,324.32Zm7.6-23.74h3.4v24.26h-3.4Z" transform="translate(-60.7 -130.09)"/><path d="M625,300.58h3.41v24.26H625Zm2.31,21h5.49a5.81,5.81,0,0,0,4.16-1.4,5.13,5.13,0,0,0,1.48-3.92v-7.15a5.16,5.16,0,0,0-1.48-3.93,5.86,5.86,0,0,0-4.16-1.39h-5.49v-3.24h5.39a11.21,11.21,0,0,1,5,1,7.13,7.13,0,0,1,3.15,3,9.59,9.59,0,0,1,1.08,4.71v6.87a9.59,9.59,0,0,1-1.08,4.71,7.11,7.11,0,0,1-3.16,3,11.26,11.26,0,0,1-5,1h-5.37Z" transform="translate(-60.7 -130.09)"/><path d="M651.55,324.21a5.81,5.81,0,0,1-2.44-2.58,9,9,0,0,1-.85-4.08v-2.82a8.81,8.81,0,0,1,.85-4,5.74,5.74,0,0,1,2.44-2.55,8.88,8.88,0,0,1,7.71,0,5.74,5.74,0,0,1,2.44,2.55,8.81,8.81,0,0,1,.85,4v2.87a8.84,8.84,0,0,1-.85,4,5.81,5.81,0,0,1-2.44,2.56,8.88,8.88,0,0,1-7.71,0Zm6.62-3.47a4.61,4.61,0,0,0,1-3.14v-2.87a4.57,4.57,0,0,0-1-3.12,4,4,0,0,0-5.53,0,4.57,4.57,0,0,0-1,3.12v2.87a4.61,4.61,0,0,0,1,3.14,4,4,0,0,0,5.53,0Z" transform="translate(-60.7 -130.09)"/><path d="M673.72,325.09l-1.68-.88a6,6,0,0,1-2.56-2.57,8.65,8.65,0,0,1-.89-4.07v-2.85a8.46,8.46,0,0,1,.89-4,5.89,5.89,0,0,1,2.56-2.55,8.71,8.71,0,0,1,4.05-.88,9.45,9.45,0,0,1,2.54.33,7.75,7.75,0,0,1,2.15.94,6,6,0,0,1,1.58,1.5l-2.45,2.21a5,5,0,0,0-1.72-1.29,4.89,4.89,0,0,0-2.05-.45,4.12,4.12,0,0,0-3.06,1.1,4.26,4.26,0,0,0-1.08,3.11v2.85a4.4,4.4,0,0,0,1.07,3.17,4,4,0,0,0,3.07,1.12,4.57,4.57,0,0,0,2.07-.49,5,5,0,0,0,1.7-1.36l2.45,2.37a6.09,6.09,0,0,1-1.6,1.47,7.45,7.45,0,0,1-2.15.93,9.78,9.78,0,0,1-2.52.31Z" transform="translate(-60.7 -130.09)"/><path d="M687.82,300.58h3.41v24.26h-3.41Zm1.47,17.69,8.91-10.75h4l-13.14,14.79Zm4-3.42,2.19-2.27,7.56,12.26h-3.71Z" transform="translate(-60.7 -130.09)"/><path d="M717.15,307.52h8.66v2.91h-8.66Zm1.84-2.35a4.89,4.89,0,0,1,1.06-3.44,4.2,4.2,0,0,1,3.26-1.15h2.5v3.24h-2.43a.83.83,0,0,0-.74.37,1.69,1.69,0,0,0-.25.95v19.7H719Z" transform="translate(-60.7 -130.09)"/><path d="M733.31,324.21a5.81,5.81,0,0,1-2.44-2.58,9.11,9.11,0,0,1-.85-4.08v-2.82a8.94,8.94,0,0,1,.85-4,5.74,5.74,0,0,1,2.44-2.55,8.88,8.88,0,0,1,7.71,0,5.81,5.81,0,0,1,2.45,2.55,8.94,8.94,0,0,1,.84,4v2.87a9,9,0,0,1-.84,4,5.89,5.89,0,0,1-2.45,2.56,8.88,8.88,0,0,1-7.71,0Zm6.62-3.47a4.61,4.61,0,0,0,1-3.14v-2.87a4.57,4.57,0,0,0-1-3.12,4,4,0,0,0-5.52,0,4.53,4.53,0,0,0-1,3.12v2.87a4.56,4.56,0,0,0,1,3.14,4,4,0,0,0,5.52,0Z" transform="translate(-60.7 -130.09)"/><path d="M750.86,307.52h3.4v17.32h-3.4Zm8.39,3.27a4.34,4.34,0,0,0-1.59-.28,3.09,3.09,0,0,0-3.4,3.37l-.35-3.34a6.37,6.37,0,0,1,2.07-2.41,4.9,4.9,0,0,1,2.8-.86,6.34,6.34,0,0,1,2.15.35,4.59,4.59,0,0,1,1.67,1l-2.22,3A2.87,2.87,0,0,0,759.25,310.79Z" transform="translate(-60.7 -130.09)"/><path d="M776.2,307.52h3.47L785,322.58l-1.88,3.68Zm15.33,0-7.37,21.38a5.26,5.26,0,0,1-1,1.88,3.71,3.71,0,0,1-1.61,1,7.81,7.81,0,0,1-2.33.3h-.69V328.8h.69a2.68,2.68,0,0,0,1.51-.38,3.07,3.07,0,0,0,1-1.32l6.41-19.58Z" transform="translate(-60.7 -130.09)"/><path d="M798.7,324.21a5.83,5.83,0,0,1-2.45-2.58,9.11,9.11,0,0,1-.84-4.08v-2.82a8.94,8.94,0,0,1,.84-4,5.76,5.76,0,0,1,2.45-2.55,8.88,8.88,0,0,1,7.71,0,5.79,5.79,0,0,1,2.44,2.55,8.94,8.94,0,0,1,.84,4v2.87a9,9,0,0,1-.84,4,5.87,5.87,0,0,1-2.44,2.56,8.88,8.88,0,0,1-7.71,0Zm6.61-3.47a4.61,4.61,0,0,0,1-3.14v-2.87a4.58,4.58,0,0,0-1-3.12,4,4,0,0,0-5.52,0,4.58,4.58,0,0,0-1,3.12v2.87a4.61,4.61,0,0,0,1,3.14,4,4,0,0,0,5.52,0Z" transform="translate(-60.7 -130.09)"/><path d="M819.23,318.05a4,4,0,0,0,.92,2.82,3.41,3.41,0,0,0,2.62,1,3.56,3.56,0,0,0,2.58-.89,3.35,3.35,0,0,0,.92-2.52l.23,3.63a5,5,0,0,1-1.73,2.15,4.91,4.91,0,0,1-3,.86,5.48,5.48,0,0,1-4.43-1.84,7.82,7.82,0,0,1-1.56-5.2V307.52h3.41Zm7-10.53h3.39v17.32h-3.39Z" transform="translate(-60.7 -130.09)"/><path d="M836.54,307.52h3.4v17.32h-3.4Zm8.39,3.27a4.25,4.25,0,0,0-1.58-.28,3.44,3.44,0,0,0-2.52.89,3.39,3.39,0,0,0-.89,2.48l-.35-3.34a6.55,6.55,0,0,1,2.07-2.41,4.92,4.92,0,0,1,2.8-.86,6.34,6.34,0,0,1,2.15.35,4.63,4.63,0,0,1,1.68,1l-2.22,3A2.83,2.83,0,0,0,844.93,310.79Z" transform="translate(-60.7 -130.09)"/><path d="M864.05,300.57h3.4v24.27h-3.4Zm1.48,10.78h8.28a3.19,3.19,0,0,0,1.72-.47,3,3,0,0,0,1.16-1.33,5,5,0,0,0,0-3.95,3.07,3.07,0,0,0-1.15-1.33,3.2,3.2,0,0,0-1.73-.47h-8.28v-3.23h8.15a7.67,7.67,0,0,1,3.69.86,6,6,0,0,1,2.47,2.47,8.07,8.07,0,0,1,0,7.35,6,6,0,0,1-2.47,2.46,7.58,7.58,0,0,1-3.68.87h-8.15Zm6.61,2.48,3.39-.77,6.21,11.78h-4Z" transform="translate(-60.7 -130.09)"/><path d="M891.72,325.09l-1.7-.9a6,6,0,0,1-2.59-2.64,9.09,9.09,0,0,1-.9-4.21v-2a10.21,10.21,0,0,1,.86-4.38,6.08,6.08,0,0,1,2.5-2.77,7.63,7.63,0,0,1,3.93-1,6.3,6.3,0,0,1,3.71,1.09,6.74,6.74,0,0,1,2.34,3.14,13.34,13.34,0,0,1,.81,4.92v1.13H889v-2.73h8.45a5.91,5.91,0,0,0-1.1-3.3,3.09,3.09,0,0,0-2.53-1.18,3.7,3.7,0,0,0-3,1.27,5.43,5.43,0,0,0-1.06,3.59v2.2a4.55,4.55,0,0,0,1.13,3.31,4.35,4.35,0,0,0,3.22,1.15,5.38,5.38,0,0,0,2.06-.42,6,6,0,0,0,1.82-1.17l2.23,2.24a9.38,9.38,0,0,1-2.89,1.91,8.19,8.19,0,0,1-3.22.67Z" transform="translate(-60.7 -130.09)"/><path d="M911.65,325.09s-.45-.09-1.34-.3a10.4,10.4,0,0,1-2.51-.9,9.65,9.65,0,0,1-2.15-1.5l2-2.48a11.77,11.77,0,0,0,2.79,1.6,7.7,7.7,0,0,0,2.74.53,6,6,0,0,0,3-.62,2.08,2.08,0,0,0,1-1.88,1.46,1.46,0,0,0-.56-1.25,3,3,0,0,0-1.36-.56c-.55-.1-1.32-.18-2.31-.26h-.28l-.28,0h-.27a13.4,13.4,0,0,1-2.85-.49,3.89,3.89,0,0,1-2-1.35,4.43,4.43,0,0,1-.77-2.82,5.72,5.72,0,0,1,.75-3.05,4.59,4.59,0,0,1,2.23-1.83,10,10,0,0,1,3.72-.61,13.36,13.36,0,0,1,2.58.25,11.71,11.71,0,0,1,2.35.75,12,12,0,0,1,2.15,1.24l-2,2.49a11.16,11.16,0,0,0-2.56-1.25,7.86,7.86,0,0,0-2.47-.42,4.69,4.69,0,0,0-2.6.59,2,2,0,0,0-.87,1.78,1.21,1.21,0,0,0,.5,1.05,2.9,2.9,0,0,0,1.24.47c.5.07,1.21.14,2.13.2h.21l.23,0h.1l.1,0a14.55,14.55,0,0,1,3.09.48,4.19,4.19,0,0,1,2.15,1.45,4.93,4.93,0,0,1,.87,3.14,5.48,5.48,0,0,1-.81,3.09,4.78,4.78,0,0,1-2.41,1.85,11.42,11.42,0,0,1-4,.61Z" transform="translate(-60.7 -130.09)"/><path d="M929.28,324.21a5.88,5.88,0,0,1-2.45-2.58,9.11,9.11,0,0,1-.84-4.08v-2.82a8.94,8.94,0,0,1,.84-4,5.81,5.81,0,0,1,2.45-2.55,8.88,8.88,0,0,1,7.71,0,5.74,5.74,0,0,1,2.44,2.55,8.94,8.94,0,0,1,.84,4v2.87a9,9,0,0,1-.84,4,5.81,5.81,0,0,1-2.44,2.56,8.88,8.88,0,0,1-7.71,0Zm6.61-3.47a4.56,4.56,0,0,0,1-3.14v-2.87a4.53,4.53,0,0,0-1-3.12,4,4,0,0,0-5.52,0,4.57,4.57,0,0,0-1,3.12v2.87a4.61,4.61,0,0,0,1,3.14,4,4,0,0,0,5.52,0Z" transform="translate(-60.7 -130.09)"/><path d="M949.81,318.05a4,4,0,0,0,.93,2.82,3.38,3.38,0,0,0,2.61,1,3.56,3.56,0,0,0,2.58-.89,3.35,3.35,0,0,0,.92-2.52l.23,3.63a5,5,0,0,1-1.73,2.15,4.9,4.9,0,0,1-3,.86,5.47,5.47,0,0,1-4.43-1.84,7.76,7.76,0,0,1-1.56-5.2V307.52h3.4Zm7-10.53h3.39v17.32h-3.39Z" transform="translate(-60.7 -130.09)"/><path d="M967.12,307.52h3.4v17.32h-3.4Zm8.39,3.27a4.25,4.25,0,0,0-1.58-.28,3.4,3.4,0,0,0-2.51.89,3.36,3.36,0,0,0-.9,2.48l-.35-3.34a6.55,6.55,0,0,1,2.07-2.41,4.92,4.92,0,0,1,2.8-.86,6.34,6.34,0,0,1,2.15.35,4.63,4.63,0,0,1,1.68,1l-2.22,3A2.83,2.83,0,0,0,975.51,310.79Z" transform="translate(-60.7 -130.09)"/><path d="M987.7,325.09l-1.68-.88a6,6,0,0,1-2.56-2.57,8.65,8.65,0,0,1-.88-4.07v-2.85a8.46,8.46,0,0,1,.88-4,5.89,5.89,0,0,1,2.56-2.55,8.71,8.71,0,0,1,4.05-.88,9.45,9.45,0,0,1,2.54.33,7.75,7.75,0,0,1,2.15.94,6,6,0,0,1,1.58,1.5l-2.45,2.21a5,5,0,0,0-1.72-1.29,4.89,4.89,0,0,0-2-.45,4.1,4.1,0,0,0-3,1.1,4.23,4.23,0,0,0-1.09,3.11v2.85a4.37,4.37,0,0,0,1.08,3.17,4,4,0,0,0,3.06,1.12,4.57,4.57,0,0,0,2.07-.49,5,5,0,0,0,1.7-1.36l2.45,2.37a5.94,5.94,0,0,1-1.6,1.47,7.38,7.38,0,0,1-2.14.93,9.91,9.91,0,0,1-2.53.31Z" transform="translate(-60.7 -130.09)"/><path d="M1006.49,325.09l-1.7-.9a6,6,0,0,1-2.59-2.64,9.09,9.09,0,0,1-.89-4.21v-2a10.22,10.22,0,0,1,.85-4.38,6.14,6.14,0,0,1,2.5-2.77,7.64,7.64,0,0,1,3.94-1,6.27,6.27,0,0,1,3.7,1.09,6.76,6.76,0,0,1,2.35,3.14,13.34,13.34,0,0,1,.81,4.92v1.13h-11.69v-2.73h8.45a5.9,5.9,0,0,0-1.09-3.3,3.1,3.1,0,0,0-2.53-1.18,3.72,3.72,0,0,0-3,1.27,5.49,5.49,0,0,0-1.06,3.59v2.2a4.51,4.51,0,0,0,1.14,3.31,4.34,4.34,0,0,0,3.22,1.15,5.33,5.33,0,0,0,2.05-.42,6,6,0,0,0,1.82-1.17l2.23,2.24a9.34,9.34,0,0,1-2.88,1.91,8.23,8.23,0,0,1-3.22.67Z" transform="translate(-60.7 -130.09)"/><path d="M1026.42,325.09l-1.34-.3a10.56,10.56,0,0,1-2.51-.9,9.65,9.65,0,0,1-2.15-1.5l2-2.48a11.53,11.53,0,0,0,2.78,1.6,7.74,7.74,0,0,0,2.74.53,5.94,5.94,0,0,0,3-.62,2.08,2.08,0,0,0,1-1.88,1.48,1.48,0,0,0-.55-1.25,3.08,3.08,0,0,0-1.37-.56c-.55-.1-1.31-.18-2.3-.26h-.29l-.28,0h-.27a13.52,13.52,0,0,1-2.85-.49,3.89,3.89,0,0,1-1.95-1.35,4.49,4.49,0,0,1-.77-2.82,5.72,5.72,0,0,1,.75-3.05,4.61,4.61,0,0,1,2.24-1.83,10,10,0,0,1,3.72-.61,13.26,13.26,0,0,1,2.57.25,11.71,11.71,0,0,1,2.35.75,12,12,0,0,1,2.15,1.24L1033.1,312a11,11,0,0,0-2.56-1.25,7.75,7.75,0,0,0-2.46-.42,4.71,4.71,0,0,0-2.61.59,2,2,0,0,0-.86,1.78,1.2,1.2,0,0,0,.49,1.05,3,3,0,0,0,1.24.47c.5.07,1.21.14,2.14.2h.21l.22,0h.1l.1,0a14.76,14.76,0,0,1,3.1.48,4.16,4.16,0,0,1,2.14,1.45,4.93,4.93,0,0,1,.87,3.14,5.56,5.56,0,0,1-.8,3.09,4.86,4.86,0,0,1-2.41,1.85,11.51,11.51,0,0,1-4,.61Z" transform="translate(-60.7 -130.09)"/><path d="M1041.43,321.27H1045v3.57h-3.57Zm.09-20.69h3.4v18h-3.4Z" transform="translate(-60.7 -130.09)"/></svg>