<svg id="Cloud" xmlns="http://www.w3.org/2000/svg" viewBox="0 0 1006.39 214.03"><defs><style>.cls-1{fill:#407bff;}.cls-2{fill:#263238;}.cls-3{fill:#fff;}.cls-4{fill:#fafafa;opacity:0.8;}</style></defs><title>logoh</title><path class="cls-1" d="M127.81,214.46l-.59-.72a63.56,63.56,0,0,1,7.6-5.28l.47.8A59.75,59.75,0,0,0,127.81,214.46Z" transform="translate(-60.7 -137.98)"/><path class="cls-1" d="M108.81,240.91l-.87-.32a63.58,63.58,0,0,1,14.5-22.54l.66.66A62.52,62.52,0,0,0,108.81,240.91Z" transform="translate(-60.7 -137.98)"/><path class="cls-1" d="M288.1,281.7a49.29,49.29,0,0,0-67.75-45.3,59.58,59.58,0,0,0-111.71,13.18A51.27,51.27,0,0,0,112,352H275.15a36.35,36.35,0,0,0,13-70.32Z" transform="translate(-60.7 -137.98)"/><path class="cls-2" d="M251.39,265.13H120.81a4,4,0,0,1-4-4h0a4,4,0,0,1,4-4H251.39a4,4,0,0,1,4,4h0A4,4,0,0,1,251.39,265.13Z" transform="translate(-60.7 -137.98)"/><path class="cls-3" d="M231.69,319.35H140.51a13.48,13.48,0,0,1,0-27h91.18a13.48,13.48,0,1,1,0,27Zm-91.18-26a12.55,12.55,0,1,0,0,25.1h91.18a12.55,12.55,0,1,0,0-25.1Z" transform="translate(-60.7 -137.98)"/><path class="cls-3" d="M161.81,316.11h-21.3a10.26,10.26,0,0,1-10.24-10.23h0a10.27,10.27,0,0,1,10.24-10.24h21.3A10.26,10.26,0,0,1,172,305.88h0A10.26,10.26,0,0,1,161.81,316.11Z" transform="translate(-60.7 -137.98)"/><polygon class="cls-1" points="194.42 49.35 177.11 123.13 73.81 123.13 102.7 0 174.23 16.78 194.42 49.35"/><polygon class="cls-4" points="194.42 49.35 177.11 123.13 73.81 123.13 102.7 0 174.23 16.78 194.42 49.35"/><path class="cls-1" d="M241.65,201.05l-78.46-18.41a2.1,2.1,0,0,1-1.57-2.52h0a2.11,2.11,0,0,1,2.53-1.57L242.61,197a2.11,2.11,0,0,1,1.56,2.52h0A2.1,2.1,0,0,1,241.65,201.05Z" transform="translate(-60.7 -137.98)"/><path class="cls-1" d="M238.65,213.82l-78.46-18.41a2.11,2.11,0,0,1-1.57-2.53h0a2.12,2.12,0,0,1,2.53-1.56l78.46,18.41a2.1,2.1,0,0,1,1.56,2.52h0A2.1,2.1,0,0,1,238.65,213.82Z" transform="translate(-60.7 -137.98)"/><path class="cls-1" d="M235.65,226.59l-78.46-18.41a2.11,2.11,0,0,1-1.56-2.53h0a2.1,2.1,0,0,1,2.52-1.56l78.46,18.41a2.1,2.1,0,0,1,1.57,2.52h0A2.11,2.11,0,0,1,235.65,226.59Z" transform="translate(-60.7 -137.98)"/><path class="cls-1" d="M232.66,239.36,154.2,221a2.11,2.11,0,0,1-1.57-2.53h0a2.11,2.11,0,0,1,2.53-1.56l78.46,18.41a2.1,2.1,0,0,1,1.56,2.52h0A2.1,2.1,0,0,1,232.66,239.36Z" transform="translate(-60.7 -137.98)"/><path class="cls-1" d="M198.47,244.81,151.2,233.72a2.11,2.11,0,0,1-1.56-2.53h0a2.1,2.1,0,0,1,2.52-1.56l47.27,11.09a2.1,2.1,0,0,1,1.56,2.52h0A2.1,2.1,0,0,1,198.47,244.81Z" transform="translate(-60.7 -137.98)"/><polygon class="cls-1" points="194.42 49.35 168.04 43.16 174.23 16.78 194.42 49.35"/><path class="cls-1" d="M448.39,176.54q4.73,3.74,4.73,11.52a14.09,14.09,0,0,1-1.83,6.64,16.31,16.31,0,0,1-4.89,5.65,10.72,10.72,0,0,1-6.41,2.22,14.59,14.59,0,0,0-3.36-9.77,20.66,20.66,0,0,0-8.55-6,29.74,29.74,0,0,0-10.69-2,22.11,22.11,0,0,0-8.24,1.52v31.91h26.41v13.44H409.15v41.68a10,10,0,0,0,.76,4A20.51,20.51,0,0,0,412,281a5.79,5.79,0,0,1,1.3,2.6,2.2,2.2,0,0,1-.46,1.37,1.43,1.43,0,0,1-1.22.61h-37.1a1.45,1.45,0,0,1-1.22-.61,2.26,2.26,0,0,1-.46-1.37A6,6,0,0,1,374,281a33.44,33.44,0,0,0,2.06-3.51,9.14,9.14,0,0,0,.84-4.12v-82a11,11,0,0,0-4.43-7.33,2.31,2.31,0,0,1-.76-1.68,1.93,1.93,0,0,1,.45-1.29,1.53,1.53,0,0,1,1.23-.54,135,135,0,0,0,18.39-1.07q7.71-1.06,16.57-3.2,7.78-1.83,13.51-2.67A90.73,90.73,0,0,1,435,172.8Q443.65,172.8,448.39,176.54Z" transform="translate(-60.7 -137.98)"/><path class="cls-1" d="M504.88,203.33a3.44,3.44,0,0,1,.91,2.75v16.49a3.45,3.45,0,0,1-1,2.52,3.23,3.23,0,0,1-2.37,1l-1.22-.31a21.4,21.4,0,0,0-7.63-1.52q-8.4,0-16.19,7v42a10.05,10.05,0,0,0,.77,4.05,19.89,19.89,0,0,0,2.06,3.59,5.93,5.93,0,0,1,1.3,2.59,2.29,2.29,0,0,1-.46,1.38,1.47,1.47,0,0,1-1.22.61h-37.1a1.46,1.46,0,0,1-1.22-.61,2.23,2.23,0,0,1-.46-1.38,5.94,5.94,0,0,1,1.22-2.59,33.44,33.44,0,0,0,2.06-3.51,9.18,9.18,0,0,0,.84-4.13V221.19a7.73,7.73,0,0,0-.92-4.35,20.29,20.29,0,0,0-3.2-3.28,2.32,2.32,0,0,1-.92-1.83,1.66,1.66,0,0,1,.46-1.22,1.64,1.64,0,0,1,1.22-.46,65.65,65.65,0,0,0,16.87-1.91,107.84,107.84,0,0,0,13.36-4.5,20.71,20.71,0,0,1,3.05-1.07,2.6,2.6,0,0,1,1.61.53,1.73,1.73,0,0,1,.68,1.45v17.71a34.87,34.87,0,0,1,7.26-10.76,34.11,34.11,0,0,1,9.08-6.72,18.9,18.9,0,0,1,7.94-2.21A5.12,5.12,0,0,1,504.88,203.33Z" transform="translate(-60.7 -137.98)"/><path class="cls-1" d="M527.7,282.57A36.2,36.2,0,0,1,513,269.06q-5.73-9.09-5.72-22.37,0-22,11.75-33.59t32.06-11.6a32.5,32.5,0,0,1,15.35,3.74,30.59,30.59,0,0,1,11.29,9.92,22.62,22.62,0,0,1,4.2,12.9q0,9.62-7.4,15t-18.7,5.35a54.56,54.56,0,0,1-10.54-1,79.23,79.23,0,0,1-7.94-1.91q1.38,12.51,7.71,19A20.84,20.84,0,0,0,560.6,271q8.24,0,16-6.1a2.59,2.59,0,0,1,1.22-.46,2.07,2.07,0,0,1,1.53.61,2.31,2.31,0,0,1,.61,1.68q0,4.13-4.2,8.85a33.73,33.73,0,0,1-11.76,8.1A42.79,42.79,0,0,1,546.55,287,41.9,41.9,0,0,1,527.7,282.57Zm20.76-46.11a21.21,21.21,0,0,0,7.25-8.63,24.35,24.35,0,0,0,2.45-10.3,12.8,12.8,0,0,0-1.53-6.57,5.25,5.25,0,0,0-4.89-2.59q-4.57,0-7.86,5.11a40.26,40.26,0,0,0-5,12.52,59.56,59.56,0,0,0-1.75,13.67A18.57,18.57,0,0,0,548.46,236.46Z" transform="translate(-60.7 -137.98)"/><path class="cls-1" d="M605.41,282.57a36.2,36.2,0,0,1-14.66-13.51Q585,260,585,246.69q0-22,11.75-33.59t32.06-11.6a32.5,32.5,0,0,1,15.35,3.74,30.59,30.59,0,0,1,11.29,9.92,22.62,22.62,0,0,1,4.2,12.9q0,9.62-7.4,15t-18.7,5.35a54.56,54.56,0,0,1-10.54-1,79.92,79.92,0,0,1-7.94-1.91q1.38,12.51,7.71,19a20.84,20.84,0,0,0,15.5,6.48q8.24,0,16-6.1a2.59,2.59,0,0,1,1.22-.46,2.07,2.07,0,0,1,1.53.61,2.31,2.31,0,0,1,.61,1.68q0,4.13-4.2,8.85a33.73,33.73,0,0,1-11.76,8.1A42.79,42.79,0,0,1,624.26,287,41.9,41.9,0,0,1,605.41,282.57Zm20.76-46.11a21.21,21.21,0,0,0,7.25-8.63,24.35,24.35,0,0,0,2.45-10.3,12.8,12.8,0,0,0-1.53-6.57,5.25,5.25,0,0,0-4.89-2.59q-4.58,0-7.86,5.11a40.26,40.26,0,0,0-5,12.52,59.56,59.56,0,0,0-1.75,13.67A18.57,18.57,0,0,0,626.17,236.46Z" transform="translate(-60.7 -137.98)"/><path class="cls-1" d="M742.51,182a22.16,22.16,0,0,1,1.6,8.78,22.57,22.57,0,0,1-1.91,9.31,12.36,12.36,0,0,1-5.88,6.26H733q0-8.24-5.5-12.82T710.68,189v84.27a10.06,10.06,0,0,0,.76,4.05,19.89,19.89,0,0,0,2.06,3.59,5.93,5.93,0,0,1,1.3,2.59,2.23,2.23,0,0,1-.46,1.38,1.47,1.47,0,0,1-1.22.61H676a1.46,1.46,0,0,1-1.22-.61,2.23,2.23,0,0,1-.46-1.38,6.07,6.07,0,0,1,1.22-2.59,33.44,33.44,0,0,0,2.06-3.51,9.18,9.18,0,0,0,.84-4.13l.15-84.27q-11.45,0-17.25,4.58t-5.8,12.82h-3.82a12.12,12.12,0,0,1-5.42-6.33,24.25,24.25,0,0,1-1.9-9.54,19.48,19.48,0,0,1,1.75-8.63q1.76-3.58,4.66-3.59A130.82,130.82,0,0,1,666.4,180q17.55,2.59,27.63,2.6a153,153,0,0,0,16.26-.84q7.86-.84,17.94-2.22a81.07,81.07,0,0,1,10.38-1.22Q740.91,178.29,742.51,182Z" transform="translate(-60.7 -137.98)"/><path class="cls-1" d="M752.89,283.79a41.32,41.32,0,0,1-18.17-13.59q-7.56-9.61-7.56-25.34,0-16,7.56-25.73a41.67,41.67,0,0,1,18.17-13.74,53.7,53.7,0,0,1,40.92,0,42.21,42.21,0,0,1,18.24,13.74q7.63,9.7,7.63,25.73,0,15.72-7.63,25.34a41.85,41.85,0,0,1-18.24,13.59,54.71,54.71,0,0,1-40.92,0Zm30.92-14.28a71.27,71.27,0,0,0,3.66-23.89q0-15.42-3.66-26.18t-10.39-10.77q-6.72,0-10.38,10.92t-3.66,26.79a67.11,67.11,0,0,0,3.74,23.21q3.74,10.23,10.3,10.23Q780.14,279.82,783.81,269.51Z" transform="translate(-60.7 -137.98)"/><path class="cls-1" d="M843.73,285.47a27.91,27.91,0,0,1-11.07-6,12.82,12.82,0,0,1-4.43-9.85,9.72,9.72,0,0,1,3.13-7.48,11.78,11.78,0,0,1,8.32-2.9,18.1,18.1,0,0,1,4.73.61c-.1.41-.3,1.22-.61,2.44a13.67,13.67,0,0,0-.45,3.21q0,7,3.89,10.84a12.4,12.4,0,0,0,8.93,3.81,10,10,0,0,0,6.64-2.36,7.69,7.69,0,0,0,2.82-6.19,10.3,10.3,0,0,0-2.82-7.09,30.21,30.21,0,0,0-6.34-5.35q-3.51-2.2-11.45-6.49-9.62-5.19-14-11.29t-4.43-15.73q0-11.44,9-17.94t23.66-6.49q13.59,0,20,3.82t6.41,9.31a10,10,0,0,1-3.43,7.41A11.41,11.41,0,0,1,874,225a8.3,8.3,0,0,1-1.83-.15,18.1,18.1,0,0,0,.76-4.74,12.48,12.48,0,0,0-3.89-9.39,11.9,11.9,0,0,0-8.32-3.74,6.85,6.85,0,0,0-5.19,2.07q-2,2.06-2,6a15.32,15.32,0,0,0,2.52,8.77,23.89,23.89,0,0,0,6.26,6.34q3.75,2.6,10.16,6.26,6.71,3.82,10.76,6.64a25.27,25.27,0,0,1,6.79,7.1,18,18,0,0,1,2.75,9.92q0,14.82-10.53,21.07t-25.5,6.26A45.45,45.45,0,0,1,843.73,285.47Z" transform="translate(-60.7 -137.98)"/><path class="cls-1" d="M913,285.47a27.91,27.91,0,0,1-11.07-6,12.85,12.85,0,0,1-4.42-9.85,9.75,9.75,0,0,1,3.12-7.48,11.78,11.78,0,0,1,8.33-2.9,18.21,18.21,0,0,1,4.73.61c-.1.41-.31,1.22-.61,2.44a13.23,13.23,0,0,0-.46,3.21q0,7,3.89,10.84a12.43,12.43,0,0,0,8.93,3.81,10,10,0,0,0,6.65-2.36,7.69,7.69,0,0,0,2.82-6.19,10.3,10.3,0,0,0-2.82-7.09,30.47,30.47,0,0,0-6.34-5.35q-3.51-2.2-11.45-6.49-9.62-5.19-14.05-11.29t-4.42-15.73q0-11.44,9-17.94t23.67-6.49q13.59,0,20,3.82t6.41,9.31a10,10,0,0,1-3.44,7.41,11.4,11.4,0,0,1-8.16,3.28,8.34,8.34,0,0,1-1.84-.15,18.16,18.16,0,0,0,.77-4.74,12.49,12.49,0,0,0-3.9-9.39,11.87,11.87,0,0,0-8.32-3.74,6.87,6.87,0,0,0-5.19,2.07q-2,2.06-2,6a15.32,15.32,0,0,0,2.52,8.77,23.74,23.74,0,0,0,6.26,6.34q3.74,2.6,10.15,6.26,6.72,3.82,10.76,6.64a25.17,25.17,0,0,1,6.8,7.1,18,18,0,0,1,2.75,9.92q0,14.82-10.54,21.07t-25.49,6.26A45.57,45.57,0,0,1,913,285.47Z" transform="translate(-60.7 -137.98)"/><path class="cls-1" d="M983.12,284.4a25.69,25.69,0,0,1-11.07-8.7,20.92,20.92,0,0,1-3.82-12.22,28.48,28.48,0,0,1,4.66-15,47.53,47.53,0,0,1,13.66-13.81c0,.3-1.45-.89-4.35-3.59a43.32,43.32,0,0,1-7.94-10.31,28.33,28.33,0,0,1-3.59-14.35,29,29,0,0,1,5-17.1,32,32,0,0,1,13.36-10.91,43.32,43.32,0,0,1,17.94-3.74c1.83,0,3.21.05,4.12.15q10.38.76,17.1,6.72a19.65,19.65,0,0,1,6.72,15.42,27.27,27.27,0,0,1-3.28,12.59,43.52,43.52,0,0,1-10,12.29q0-.45,5.95,5.81a94,94,0,0,1,10.84,13.81q4.89,7.56,4.89,14.43a27.53,27.53,0,0,1-5.65,16.56,35.38,35.38,0,0,1-15.19,11.23,58.4,58.4,0,0,1-22.22,4A42.16,42.16,0,0,1,983.12,284.4Zm30-13a24.58,24.58,0,0,0-2.37-9.69,60.06,60.06,0,0,0-5.65-10.16,33.77,33.77,0,0,0-5.72-6.71,15.38,15.38,0,0,0-9,7.4A24.17,24.17,0,0,0,987,264.7a18,18,0,0,0,3.67,11.53q3.66,4.66,10.68,4.66Q1013.12,280.89,1013.12,271.42Zm4.2-68.17a29.45,29.45,0,0,0,2.36-10.91,12.59,12.59,0,0,0-2.36-8q-2.37-3-7.1-3a13.14,13.14,0,0,0-9.24,3.28,10.15,10.15,0,0,0-3.59,7.71,19.63,19.63,0,0,0,4.12,11.52,42.59,42.59,0,0,0,9.62,9.7A36.45,36.45,0,0,0,1017.32,203.25Z" transform="translate(-60.7 -137.98)"/><path d="M341.28,306h3.8v27.1h-3.8Zm2,13h8.66a4,4,0,0,0,2.16-.58,3.75,3.75,0,0,0,1.45-1.64,5.57,5.57,0,0,0,.51-2.44,5.63,5.63,0,0,0-.51-2.46,3.83,3.83,0,0,0-1.45-1.65,4,4,0,0,0-2.16-.59h-8.66V306h8.53a8.57,8.57,0,0,1,4.27,1,7.18,7.18,0,0,1,2.86,2.92,9.81,9.81,0,0,1,0,8.71,7.13,7.13,0,0,1-2.86,2.9,8.67,8.67,0,0,1-4.27,1h-8.53Z" transform="translate(-60.7 -137.98)"/><path d="M370.14,333.34l-1.9-1a6.69,6.69,0,0,1-2.9-3,10.11,10.11,0,0,1-1-4.7v-2.18a11.39,11.39,0,0,1,1-4.9,6.86,6.86,0,0,1,2.79-3.1,8.65,8.65,0,0,1,4.39-1.06,7,7,0,0,1,4.14,1.21,7.49,7.49,0,0,1,2.62,3.51,15,15,0,0,1,.9,5.49v1.27h-13v-3.05h9.43a6.55,6.55,0,0,0-1.22-3.69,3.46,3.46,0,0,0-2.83-1.31,4.09,4.09,0,0,0-3.34,1.42,6.06,6.06,0,0,0-1.18,4v2.46a5,5,0,0,0,1.26,3.69,4.84,4.84,0,0,0,3.6,1.29,6,6,0,0,0,2.29-.47,6.47,6.47,0,0,0,2-1.3l2.5,2.5a10.5,10.5,0,0,1-3.22,2.13,9.27,9.27,0,0,1-3.6.76Z" transform="translate(-60.7 -137.98)"/><path d="M387.27,313.71h3.8v19.35h-3.8Zm9.38,3.65a4.64,4.64,0,0,0-1.78-.31,3.46,3.46,0,0,0-3.8,3.76l-.39-3.73a7.2,7.2,0,0,1,2.31-2.69,5.48,5.48,0,0,1,3.13-1,7.24,7.24,0,0,1,2.4.38,5.54,5.54,0,0,1,1.87,1.13l-2.48,3.36A3.29,3.29,0,0,0,396.65,317.36Z" transform="translate(-60.7 -137.98)"/><path d="M410.59,333.34l-1.5-.34a11.39,11.39,0,0,1-2.8-1,10.94,10.94,0,0,1-2.41-1.67l2.26-2.78a12.6,12.6,0,0,0,3.11,1.79,8.39,8.39,0,0,0,3.06.59,6.59,6.59,0,0,0,3.38-.69,2.32,2.32,0,0,0,1.13-2.1,1.65,1.65,0,0,0-.62-1.4,3.41,3.41,0,0,0-1.53-.62c-.6-.11-1.46-.2-2.57-.29h-.31l-.32,0h-.3a15,15,0,0,1-3.19-.55,4.25,4.25,0,0,1-2.17-1.5,5,5,0,0,1-.86-3.15,6.5,6.5,0,0,1,.83-3.41,5.21,5.21,0,0,1,2.5-2,11.1,11.1,0,0,1,4.16-.68,14.21,14.21,0,0,1,2.88.28,12.68,12.68,0,0,1,5,2.22l-2.29,2.78a12.56,12.56,0,0,0-2.86-1.4,8.78,8.78,0,0,0-2.75-.47,5.22,5.22,0,0,0-2.91.66,2.26,2.26,0,0,0-1,2,1.33,1.33,0,0,0,.55,1.17,3.16,3.16,0,0,0,1.39.52c.56.09,1.35.17,2.38.23l.24,0a1.1,1.1,0,0,1,.25,0h.22a16.89,16.89,0,0,1,3.46.54,4.74,4.74,0,0,1,2.4,1.63,5.51,5.51,0,0,1,1,3.5,6.2,6.2,0,0,1-.89,3.46,5.42,5.42,0,0,1-2.69,2.06,12.75,12.75,0,0,1-4.52.69Z" transform="translate(-60.7 -137.98)"/><path d="M430.28,332.35a6.56,6.56,0,0,1-2.73-2.88,10.11,10.11,0,0,1-.94-4.56v-3.15a9.9,9.9,0,0,1,.94-4.5,6.49,6.49,0,0,1,2.73-2.85,9.95,9.95,0,0,1,8.61,0,6.49,6.49,0,0,1,2.73,2.85,9.9,9.9,0,0,1,.94,4.5V325a10,10,0,0,1-.94,4.52,6.57,6.57,0,0,1-2.73,2.86,9.86,9.86,0,0,1-8.61,0Zm7.39-3.88a5.13,5.13,0,0,0,1.09-3.5v-3.21a5.06,5.06,0,0,0-1.09-3.48,4.48,4.48,0,0,0-6.17,0,5.06,5.06,0,0,0-1.09,3.48V325a5.13,5.13,0,0,0,1.09,3.5,4.43,4.43,0,0,0,6.17,0Z" transform="translate(-60.7 -137.98)"/><path d="M449.88,313.71h3.8v19.35h-3.8Zm11.74,7.62a4.4,4.4,0,0,0-1.07-3.16,3.88,3.88,0,0,0-3-1.12,4,4,0,0,0-2.88,1,3.73,3.73,0,0,0-1,2.78l-.39-3.73a7,7,0,0,1,2.33-2.7,5.74,5.74,0,0,1,3.2-.95,6,6,0,0,1,4.87,2.06,8.83,8.83,0,0,1,1.73,5.83v11.74h-3.8Z" transform="translate(-60.7 -137.98)"/><path d="M473.94,331.85a5.52,5.52,0,0,1-1.77-4.5,5.45,5.45,0,0,1,1.62-4.3,7.23,7.23,0,0,1,4.91-1.44h5.49l.26,3.06h-5.74a3.24,3.24,0,0,0-2.22.66,2.59,2.59,0,0,0-.74,2,2.5,2.5,0,0,0,1,2.18,5,5,0,0,0,3,.71,8.57,8.57,0,0,0,3.25-.46,1.54,1.54,0,0,0,1.08-1.46l.39,2.72a4.49,4.49,0,0,1-1.24,1.29,5.32,5.32,0,0,1-1.71.75,8.52,8.52,0,0,1-2.18.26A8.19,8.19,0,0,1,473.94,331.85ZM484,320.79a4.07,4.07,0,0,0-1-3,3.83,3.83,0,0,0-2.88-1,7.26,7.26,0,0,0-2.26.35,6.87,6.87,0,0,0-2,1l-2.78-1.9a7.22,7.22,0,0,1,2.9-2.06,10.48,10.48,0,0,1,4-.74,9.18,9.18,0,0,1,4.12.85,6,6,0,0,1,2.61,2.46,8,8,0,0,1,.89,3.89v12.43H484Z" transform="translate(-60.7 -137.98)"/><path d="M499.13,328.06a1.67,1.67,0,0,0,.31,1.09,1,1,0,0,0,.86.38h1.79v3.62h-2.23a4.24,4.24,0,0,1-3.35-1.34,5.55,5.55,0,0,1-1.18-3.79V306h3.8Z" transform="translate(-60.7 -137.98)"/><path d="M508.29,306h3.8v3.8h-3.8Zm0,7.75h3.8v19.35h-3.8Z" transform="translate(-60.7 -137.98)"/><path d="M533.12,316.92l-9.3,12.61h9.8v3.53H519.21v-3.28l9.55-12.55h-9.28v-3.52h13.64Z" transform="translate(-60.7 -137.98)"/><path d="M545.8,333.34l-1.9-1a6.69,6.69,0,0,1-2.9-3,10.11,10.11,0,0,1-1-4.7v-2.18a11.39,11.39,0,0,1,1-4.9,6.86,6.86,0,0,1,2.79-3.1,8.69,8.69,0,0,1,4.4-1.06,7,7,0,0,1,4.13,1.21,7.49,7.49,0,0,1,2.62,3.51,15,15,0,0,1,.91,5.49v1.27h-13v-3.05h9.43a6.55,6.55,0,0,0-1.22-3.69,3.44,3.44,0,0,0-2.82-1.31,4.11,4.11,0,0,0-3.35,1.42,6.06,6.06,0,0,0-1.18,4v2.46a5,5,0,0,0,1.27,3.69,4.8,4.8,0,0,0,3.59,1.29,6,6,0,0,0,2.29-.47,6.63,6.63,0,0,0,2-1.3l2.49,2.5a10.38,10.38,0,0,1-3.22,2.13,9.24,9.24,0,0,1-3.6.76Z" transform="translate(-60.7 -137.98)"/><path d="M565.44,332.47a5.82,5.82,0,0,1-2.28-2.69,10.34,10.34,0,0,1-.79-4.25v-4.27a10.72,10.72,0,0,1,.77-4.27,5.78,5.78,0,0,1,2.22-2.69,6.44,6.44,0,0,1,3.52-.92,5.76,5.76,0,0,1,3.14.89,6.61,6.61,0,0,1,2.3,2.52l-.39,3.95a4.59,4.59,0,0,0-.45-2.11,3.07,3.07,0,0,0-1.29-1.33,4.26,4.26,0,0,0-2.06-.46,3.66,3.66,0,0,0-2.92,1.18,4.82,4.82,0,0,0-1,3.3v4.21a4.7,4.7,0,0,0,1,3.25,3.74,3.74,0,0,0,2.92,1.14,4.15,4.15,0,0,0,2.06-.47,3.17,3.17,0,0,0,1.29-1.37,4.73,4.73,0,0,0,.45-2.14l.26,4.08a5.52,5.52,0,0,1-1.89,2.4,5.3,5.3,0,0,1-3.24,1A6.83,6.83,0,0,1,565.44,332.47ZM573.93,306h3.8v27.1h-3.8Z" transform="translate(-60.7 -137.98)"/><path d="M598,306h3.8v27.1H598Zm2.57,23.48h6.13a6.55,6.55,0,0,0,4.65-1.55A5.76,5.76,0,0,0,613,323.5v-8a5.75,5.75,0,0,0-1.65-4.39,6.5,6.5,0,0,0-4.65-1.56h-6.13V306h6a12.49,12.49,0,0,1,5.57,1.14,7.84,7.84,0,0,1,3.52,3.31,10.68,10.68,0,0,1,1.22,5.26v7.68a10.61,10.61,0,0,1-1.22,5.25,7.84,7.84,0,0,1-3.53,3.32,12.54,12.54,0,0,1-5.58,1.14h-6Z" transform="translate(-60.7 -137.98)"/><path d="M627.64,332.35a6.56,6.56,0,0,1-2.73-2.88,10.24,10.24,0,0,1-.94-4.56v-3.15a10,10,0,0,1,.94-4.5,6.49,6.49,0,0,1,2.73-2.85,9.95,9.95,0,0,1,8.61,0,6.38,6.38,0,0,1,2.73,2.85,9.9,9.9,0,0,1,.94,4.5V325a10,10,0,0,1-.94,4.52,6.46,6.46,0,0,1-2.73,2.86,9.86,9.86,0,0,1-8.61,0Zm7.39-3.88a5.13,5.13,0,0,0,1.09-3.5v-3.21a5.06,5.06,0,0,0-1.09-3.48,4.48,4.48,0,0,0-6.17,0,5.11,5.11,0,0,0-1.09,3.48V325a5.18,5.18,0,0,0,1.09,3.5,4.43,4.43,0,0,0,6.17,0Z" transform="translate(-60.7 -137.98)"/><path d="M652.4,333.34l-1.87-1a6.71,6.71,0,0,1-2.86-2.87,9.68,9.68,0,0,1-1-4.55v-3.19a9.45,9.45,0,0,1,1-4.49,6.65,6.65,0,0,1,2.86-2.84,9.67,9.67,0,0,1,4.52-1,10.89,10.89,0,0,1,2.84.36,8.52,8.52,0,0,1,2.39,1.06,6.46,6.46,0,0,1,1.77,1.68L659.32,319a5.71,5.71,0,0,0-1.92-1.44,5.57,5.57,0,0,0-2.3-.5,4.58,4.58,0,0,0-3.41,1.23,4.7,4.7,0,0,0-1.21,3.46v3.19a4.9,4.9,0,0,0,1.2,3.54,4.53,4.53,0,0,0,3.42,1.25,5.16,5.16,0,0,0,2.31-.54,5.62,5.62,0,0,0,1.91-1.53l2.73,2.65a7,7,0,0,1-1.78,1.65,8.37,8.37,0,0,1-2.4,1,10.79,10.79,0,0,1-2.82.36Z" transform="translate(-60.7 -137.98)"/><path d="M668.16,306H672v27.1h-3.8Zm1.64,19.75,10-12h4.47l-14.67,16.51Zm4.49-3.82,2.44-2.53,8.44,13.7H681Z" transform="translate(-60.7 -137.98)"/><path d="M700.92,313.71h9.67V317h-9.67Zm2.05-2.63a5.47,5.47,0,0,1,1.18-3.84,4.7,4.7,0,0,1,3.64-1.28h2.8v3.61h-2.72a.93.93,0,0,0-.82.41,1.85,1.85,0,0,0-.28,1.07v22H703Z" transform="translate(-60.7 -137.98)"/><path d="M719,332.35a6.56,6.56,0,0,1-2.73-2.88,10.24,10.24,0,0,1-.94-4.56v-3.15a10,10,0,0,1,.94-4.5,6.49,6.49,0,0,1,2.73-2.85,9.95,9.95,0,0,1,8.61,0,6.38,6.38,0,0,1,2.73,2.85,9.9,9.9,0,0,1,.94,4.5V325a10,10,0,0,1-.94,4.52,6.46,6.46,0,0,1-2.73,2.86,9.86,9.86,0,0,1-8.61,0Zm7.39-3.88a5.13,5.13,0,0,0,1.09-3.5v-3.21a5.06,5.06,0,0,0-1.09-3.48,4.48,4.48,0,0,0-6.17,0,5.11,5.11,0,0,0-1.09,3.48V325a5.18,5.18,0,0,0,1.09,3.5,4.43,4.43,0,0,0,6.17,0Z" transform="translate(-60.7 -137.98)"/><path d="M738.56,313.71h3.8v19.35h-3.8Zm9.37,3.65a4.62,4.62,0,0,0-1.77-.31,3.8,3.8,0,0,0-2.8,1,3.74,3.74,0,0,0-1,2.77l-.39-3.73a7,7,0,0,1,2.31-2.69,5.45,5.45,0,0,1,3.13-1,7.18,7.18,0,0,1,2.39.38,5.59,5.59,0,0,1,1.88,1.13l-2.48,3.36A3.33,3.33,0,0,0,747.93,317.36Z" transform="translate(-60.7 -137.98)"/><path d="M766.86,313.71h3.88l5.94,16.81-2.1,4.12Zm17.13,0-8.24,23.87a5.66,5.66,0,0,1-1.17,2.1,4.06,4.06,0,0,1-1.79,1.11,8.89,8.89,0,0,1-2.61.34h-.76v-3.66h.76a2.92,2.92,0,0,0,1.69-.43,3.4,3.4,0,0,0,1.09-1.47l7.15-21.86Z" transform="translate(-60.7 -137.98)"/><path d="M792,332.35a6.56,6.56,0,0,1-2.73-2.88,10.24,10.24,0,0,1-.94-4.56v-3.15a10,10,0,0,1,.94-4.5,6.49,6.49,0,0,1,2.73-2.85,9.95,9.95,0,0,1,8.61,0,6.38,6.38,0,0,1,2.73,2.85,9.9,9.9,0,0,1,.94,4.5V325a10,10,0,0,1-.94,4.52,6.46,6.46,0,0,1-2.73,2.86,9.86,9.86,0,0,1-8.61,0Zm7.39-3.88a5.13,5.13,0,0,0,1.09-3.5v-3.21a5.06,5.06,0,0,0-1.09-3.48,4.48,4.48,0,0,0-6.17,0,5.11,5.11,0,0,0-1.09,3.48V325a5.18,5.18,0,0,0,1.09,3.5,4.43,4.43,0,0,0,6.17,0Z" transform="translate(-60.7 -137.98)"/><path d="M814.92,325.47a4.42,4.42,0,0,0,1,3.14,3.79,3.79,0,0,0,2.92,1.11,4,4,0,0,0,2.88-1,3.69,3.69,0,0,0,1-2.81l.26,4a5.57,5.57,0,0,1-1.94,2.41,5.51,5.51,0,0,1-3.3,1,6.16,6.16,0,0,1-4.95-2.06,8.76,8.76,0,0,1-1.74-5.81V313.71h3.8Zm7.87-11.76h3.78v19.35h-3.78Z" transform="translate(-60.7 -137.98)"/><path d="M834.26,313.71h3.8v19.35h-3.8Zm9.37,3.65a4.62,4.62,0,0,0-1.77-.31,3.8,3.8,0,0,0-2.8,1,3.74,3.74,0,0,0-1,2.77l-.39-3.73a7,7,0,0,1,2.31-2.69,5.45,5.45,0,0,1,3.13-1,7.18,7.18,0,0,1,2.39.38,5.59,5.59,0,0,1,1.88,1.13l-2.48,3.36A3.33,3.33,0,0,0,843.63,317.36Z" transform="translate(-60.7 -137.98)"/><path d="M865,305.94h3.8v27.12H865Zm1.65,12h9.25a3.54,3.54,0,0,0,1.92-.52A3.4,3.4,0,0,0,879.1,316a5.54,5.54,0,0,0,0-4.42,3.38,3.38,0,0,0-1.28-1.48,3.55,3.55,0,0,0-1.93-.52h-9.25v-3.62h9.1a8.49,8.49,0,0,1,4.13,1,6.83,6.83,0,0,1,2.76,2.75,9.15,9.15,0,0,1,0,8.22,7,7,0,0,1-2.77,2.75,8.54,8.54,0,0,1-4.11,1h-9.1Zm7.38,2.78,3.79-.86,6.93,13.16h-4.51Z" transform="translate(-60.7 -137.98)"/><path d="M895.89,333.34l-1.9-1a6.75,6.75,0,0,1-2.9-3,10.23,10.23,0,0,1-1-4.7v-2.18a11.39,11.39,0,0,1,1-4.9,6.84,6.84,0,0,1,2.78-3.1,8.71,8.71,0,0,1,4.4-1.06,7.05,7.05,0,0,1,4.14,1.21,7.62,7.62,0,0,1,2.62,3.51,15,15,0,0,1,.9,5.49v1.27h-13v-3.05h9.43a6.47,6.47,0,0,0-1.22-3.69,3.44,3.44,0,0,0-2.82-1.31,4.08,4.08,0,0,0-3.34,1.42,6.06,6.06,0,0,0-1.19,4v2.46a5,5,0,0,0,1.27,3.69,4.8,4.8,0,0,0,3.6,1.29,6,6,0,0,0,2.29-.47,6.58,6.58,0,0,0,2-1.3l2.5,2.5a10.43,10.43,0,0,1-3.23,2.13,9.23,9.23,0,0,1-3.59.76Z" transform="translate(-60.7 -137.98)"/><path d="M918.15,333.34l-1.5-.34a11.39,11.39,0,0,1-2.8-1,10.94,10.94,0,0,1-2.41-1.67l2.26-2.78a12.6,12.6,0,0,0,3.11,1.79,8.39,8.39,0,0,0,3.06.59,6.59,6.59,0,0,0,3.38-.69,2.32,2.32,0,0,0,1.13-2.1,1.65,1.65,0,0,0-.62-1.4,3.41,3.41,0,0,0-1.53-.62c-.6-.11-1.46-.2-2.57-.29h-.31l-.32,0h-.3a14.88,14.88,0,0,1-3.19-.55,4.25,4.25,0,0,1-2.17-1.5,5,5,0,0,1-.86-3.15,6.41,6.41,0,0,1,.83-3.41,5.21,5.21,0,0,1,2.5-2,11.1,11.1,0,0,1,4.16-.68,14.21,14.21,0,0,1,2.88.28,12.68,12.68,0,0,1,5,2.22l-2.29,2.78a12.56,12.56,0,0,0-2.86-1.4,8.78,8.78,0,0,0-2.75-.47,5.22,5.22,0,0,0-2.91.66,2.26,2.26,0,0,0-1,2,1.33,1.33,0,0,0,.55,1.17,3.16,3.16,0,0,0,1.39.52c.56.09,1.35.17,2.38.23l.24,0a1.1,1.1,0,0,1,.25,0h.22a16.89,16.89,0,0,1,3.46.54,4.67,4.67,0,0,1,2.39,1.63,5.45,5.45,0,0,1,1,3.5,6.2,6.2,0,0,1-.89,3.46,5.42,5.42,0,0,1-2.69,2.06,12.75,12.75,0,0,1-4.52.69Z" transform="translate(-60.7 -137.98)"/><path d="M937.84,332.35a6.56,6.56,0,0,1-2.73-2.88,10.11,10.11,0,0,1-.94-4.56v-3.15a9.9,9.9,0,0,1,.94-4.5,6.49,6.49,0,0,1,2.73-2.85,9.95,9.95,0,0,1,8.61,0,6.49,6.49,0,0,1,2.73,2.85,9.9,9.9,0,0,1,.94,4.5V325a10,10,0,0,1-.94,4.52,6.57,6.57,0,0,1-2.73,2.86,9.86,9.86,0,0,1-8.61,0Zm7.39-3.88a5.13,5.13,0,0,0,1.09-3.5v-3.21a5.06,5.06,0,0,0-1.09-3.48,4.48,4.48,0,0,0-6.17,0,5.06,5.06,0,0,0-1.09,3.48V325a5.13,5.13,0,0,0,1.09,3.5,4.43,4.43,0,0,0,6.17,0Z" transform="translate(-60.7 -137.98)"/><path d="M960.77,325.47a4.42,4.42,0,0,0,1,3.14,3.77,3.77,0,0,0,2.91,1.11,4,4,0,0,0,2.89-1,3.73,3.73,0,0,0,1-2.81l.26,4a5.65,5.65,0,0,1-1.94,2.41,5.55,5.55,0,0,1-3.3,1,6.13,6.13,0,0,1-4.95-2.06,8.76,8.76,0,0,1-1.74-5.81V313.71h3.8Zm7.87-11.76h3.78v19.35h-3.78Z" transform="translate(-60.7 -137.98)"/><path d="M980.1,313.71h3.81v19.35H980.1Zm9.38,3.65a4.62,4.62,0,0,0-1.77-.31,3.82,3.82,0,0,0-2.81,1,3.77,3.77,0,0,0-1,2.77l-.4-3.73a7.14,7.14,0,0,1,2.32-2.69,5.43,5.43,0,0,1,3.13-1,7.18,7.18,0,0,1,2.39.38,5.45,5.45,0,0,1,1.87,1.13l-2.47,3.36A3.33,3.33,0,0,0,989.48,317.36Z" transform="translate(-60.7 -137.98)"/><path d="M1003.09,333.34l-1.87-1a6.71,6.71,0,0,1-2.86-2.87,9.68,9.68,0,0,1-1-4.55v-3.19a9.45,9.45,0,0,1,1-4.49,6.65,6.65,0,0,1,2.86-2.84,9.67,9.67,0,0,1,4.52-1,10.89,10.89,0,0,1,2.84.36,8.52,8.52,0,0,1,2.39,1.06,6.46,6.46,0,0,1,1.77,1.68L1010,319a5.71,5.71,0,0,0-1.92-1.44,5.57,5.57,0,0,0-2.3-.5,4.58,4.58,0,0,0-3.41,1.23,4.7,4.7,0,0,0-1.21,3.46v3.19a4.9,4.9,0,0,0,1.2,3.54,4.53,4.53,0,0,0,3.42,1.25,5.16,5.16,0,0,0,2.31-.54,5.62,5.62,0,0,0,1.91-1.53l2.73,2.65A7,7,0,0,1,1011,332a8.37,8.37,0,0,1-2.4,1,10.79,10.79,0,0,1-2.82.36Z" transform="translate(-60.7 -137.98)"/><path d="M1024.08,333.34l-1.9-1a6.8,6.8,0,0,1-2.9-3,10.23,10.23,0,0,1-1-4.7v-2.18a11.39,11.39,0,0,1,1-4.9,6.89,6.89,0,0,1,2.78-3.1,8.71,8.71,0,0,1,4.4-1.06,7,7,0,0,1,4.14,1.21,7.62,7.62,0,0,1,2.62,3.51,15,15,0,0,1,.9,5.49v1.27h-13v-3.05h9.43a6.55,6.55,0,0,0-1.23-3.69,3.44,3.44,0,0,0-2.82-1.31,4.08,4.08,0,0,0-3.34,1.42,6.06,6.06,0,0,0-1.19,4v2.46a5,5,0,0,0,1.27,3.69,4.8,4.8,0,0,0,3.6,1.29,6,6,0,0,0,2.29-.47,6.58,6.58,0,0,0,2-1.3l2.5,2.5a10.43,10.43,0,0,1-3.23,2.13,9.23,9.23,0,0,1-3.59.76Z" transform="translate(-60.7 -137.98)"/><path d="M1046.34,333.34l-1.5-.34a11.39,11.39,0,0,1-2.8-1,10.94,10.94,0,0,1-2.41-1.67l2.26-2.78a12.6,12.6,0,0,0,3.11,1.79,8.39,8.39,0,0,0,3.06.59,6.59,6.59,0,0,0,3.38-.69,2.32,2.32,0,0,0,1.13-2.1,1.65,1.65,0,0,0-.62-1.4,3.41,3.41,0,0,0-1.53-.62c-.6-.11-1.46-.2-2.57-.29h-.31l-.32,0h-.3a15,15,0,0,1-3.19-.55,4.25,4.25,0,0,1-2.17-1.5,5,5,0,0,1-.86-3.15,6.5,6.5,0,0,1,.83-3.41,5.21,5.21,0,0,1,2.5-2,11.1,11.1,0,0,1,4.16-.68,14.21,14.21,0,0,1,2.88.28,12.68,12.68,0,0,1,5,2.22l-2.29,2.78a12.56,12.56,0,0,0-2.86-1.4,8.78,8.78,0,0,0-2.75-.47,5.22,5.22,0,0,0-2.91.66,2.26,2.26,0,0,0-1,2,1.33,1.33,0,0,0,.55,1.17,3.16,3.16,0,0,0,1.39.52c.56.09,1.35.17,2.38.23l.24,0a1.1,1.1,0,0,1,.25,0h.22a16.89,16.89,0,0,1,3.46.54,4.74,4.74,0,0,1,2.4,1.63,5.51,5.51,0,0,1,1,3.5,6.2,6.2,0,0,1-.89,3.46,5.42,5.42,0,0,1-2.69,2.06,12.75,12.75,0,0,1-4.52.69Z" transform="translate(-60.7 -137.98)"/><path d="M1063.1,329.07h4v4h-4Zm.1-23.11h3.8V326.1h-3.8Z" transform="translate(-60.7 -137.98)"/></svg>