<svg id="Layer_1" data-name="Layer 1" xmlns="http://www.w3.org/2000/svg" viewBox="0 0 565.19 441.79"><defs><style>.cls-1{fill:#fff;}.cls-2{fill:#fff7f0;}.cls-3{fill:#2ecc71;}.cls-4{fill:#f9efde;}.cls-5{fill:#efd8be;}.cls-6{fill:#cda1a7;}.cls-7{fill:#faefde;}</style></defs><title>upload</title><path class="cls-1" d="M763.11,428.6c0-2.28.32-4.47-.06-6.54-.87-4.69-1.24-9.74-3.32-13.89-5.35-10.68-14.91-14.4-26.48-14.39-72.16.07-144.32,0-216.48.12-10,0-18-3.18-25-10.32-9.5-9.82-19.38-19.27-29-28.95a44.82,44.82,0,0,0-32.72-13.77q-58-.17-116,0c-16.81.08-27.78,11.36-27.78,28.16q-.06,161.73.13,323.46a41.87,41.87,0,0,0,3.63,16.88c6.77,14.72,19.48,20.11,35,20.11q155,0,310,0c3.15,0,5.44.4,7.52,3.39,28.16,40.38,75.06,57.91,122.81,46.1,46-11.37,81.63-51.77,85.59-99,3.69-44.08-12.7-79.8-48.65-106-3.09-2.26-4.16-4.46-4.11-8.16.21-14.5.09-29,.09-43.5,0-21.83.07-43.66,0-65.49-.06-13.29-6.9-22.72-19.56-26.33C774,429,768.84,429.19,763.11,428.6Z" transform="translate(-286.28 -340.76)"/><path d="M763.11,428.6c5.73.59,10.87.42,15.58,1.76,12.66,3.61,19.5,13,19.56,26.33.11,21.83,0,43.66,0,65.49,0,14.5.12,29-.09,43.5-.05,3.7,1,5.9,4.11,8.16,36,26.24,52.34,62,48.65,106-4,47.28-39.61,87.68-85.59,99-47.75,11.81-94.65-5.72-122.81-46.1-2.08-3-4.37-3.39-7.52-3.39q-155,.07-310,0c-15.52,0-28.23-5.39-35-20.11a41.87,41.87,0,0,1-3.63-16.88q-.31-161.73-.13-323.46c0-16.8,11-28.08,27.78-28.16q58-.27,116,0a44.82,44.82,0,0,1,32.72,13.77c9.64,9.68,19.52,19.13,29,28.95,6.92,7.14,15,10.35,25,10.32,72.16-.17,144.32,0,216.48-.12,11.57,0,21.13,3.71,26.48,14.39,2.08,4.15,2.45,9.2,3.32,13.89C763.43,424.13,763.11,426.32,763.11,428.6ZM744.94,552.94c.14-1.25.28-1.89.28-2.53q0-64.26,0-128.5c0-7.14-3.34-10.19-10.58-10.21q-31-.06-62,0-78.75,0-157.5,0c-11.54,0-22.17-3-30.71-11.09Q467.94,384.92,452,368.73a32.38,32.38,0,0,0-24.56-10.14c-36.83.18-73.67.07-110.5.07-10.27,0-12.76,2.43-12.76,12.49l0,246.49v5.78h7.05q156,0,312,.13c5.39,0,8-1.42,10.49-6.42C647.37,589.22,669,570,698.34,559.45,713.29,554.05,728.72,552.25,744.94,552.94ZM640.37,667.2c-1.15,50.63,39.77,96.74,96,96.8,53.72.06,95.42-41.69,96.44-94.53,1.06-54.88-41.83-97.1-94.18-98.35C683.77,569.81,639.49,614.82,640.37,667.2ZM304.25,641.65v5.65c0,14.49.53,29-.15,43.47-.67,14.13,9.24,21,20.73,20.94,99.94-.28,199.88-.16,299.82-.16h5.66a117.19,117.19,0,0,1-5.78-69.9ZM780.3,560.71V502.13c0-15,0-30,0-44.95,0-4.44-1.34-8.12-5.92-9.2-3.41-.81-7-.62-10.94-.9,0,35.91,0,70.86.1,105.81a4.22,4.22,0,0,0,2.14,3.23C770.17,557.77,774.81,559,780.3,560.71Z" transform="translate(-286.28 -340.76)"/><path class="cls-2" d="M744.94,552.94c-16.22-.69-31.65,1.11-46.6,6.51-29.3,10.59-51,29.77-64.63,57.68-2.44,5-5.1,6.43-10.49,6.42q-156-.25-312-.13h-7.05v-5.78l0-246.49c0-10.06,2.49-12.48,12.76-12.49,36.83,0,73.67.11,110.5-.07A32.38,32.38,0,0,1,452,368.73q15.93,16.22,32.46,31.85c8.54,8.1,19.17,11.08,30.71,11.09q78.75,0,157.5,0,31,0,62,0c7.24,0,10.56,3.07,10.58,10.21q.1,64.24,0,128.5C745.22,551.05,745.08,551.69,744.94,552.94Z" transform="translate(-286.28 -340.76)"/><path class="cls-3" d="M640.37,667.2c-.88-52.38,43.4-97.39,98.27-96.08,52.35,1.25,95.24,43.47,94.18,98.35-1,52.84-42.72,94.59-96.44,94.53C680.14,763.94,639.22,717.83,640.37,667.2Z" transform="translate(-286.28 -340.76)"/><path class="cls-4" d="M791,658.94H745.2V613.16a7.26,7.26,0,0,0-7.24-7.24h-2.74a7.26,7.26,0,0,0-7.24,7.24v45.78H682.2a7.26,7.26,0,0,0-7.24,7.24v2.74a7.26,7.26,0,0,0,7.24,7.24H728v45.78a7.26,7.26,0,0,0,7.24,7.24H738a7.26,7.26,0,0,0,7.24-7.24V676.16H791a7.26,7.26,0,0,0,7.24-7.24v-2.74A7.26,7.26,0,0,0,791,658.94Z" transform="translate(-286.28 -340.76)"/><path class="cls-5" d="M304.25,641.65H624.53a117.19,117.19,0,0,0,5.78,69.9h-5.66c-99.94,0-199.88-.12-299.82.16-11.49,0-21.4-6.81-20.73-20.94.68-14.46.15-29,.15-43.47Zm35.11,34.81h0c0-3,.18-6,0-9-.36-5-4-8.66-8.52-8.86a8.76,8.76,0,0,0-8.94,7.74,124.49,124.49,0,0,0-.07,19.88,8.66,8.66,0,0,0,9.36,7.8c4.64-.36,7.89-3.85,8.21-9.09C339.5,682.13,339.36,679.29,339.36,676.46Zm202.9-.12h0v8.48a6.64,6.64,0,0,0,.09,1c.67,4.72,4.2,8.15,8.51,8.29,4.09.13,8.45-2.79,8.84-7.26a122,122,0,0,0,0-20.85c-.42-4.75-5-7.71-9.24-7.35s-7.74,3.86-8.13,8.71C542.06,670.33,542.26,673.34,542.26,676.34Zm-44,.14h0c0,3-.13,6,0,9,.27,4.88,3.5,8.23,8.06,8.58,4.36.34,8.6-2.26,9-6.83a134.84,134.84,0,0,0,0-21.83c-.39-4.52-4.83-7.18-9.07-6.71a9,9,0,0,0-7.87,8.33C498.1,670.15,498.25,673.32,498.25,676.48Zm-114.92.15c0-3.16.14-6.33,0-9.48a9.06,9.06,0,0,0-8.24-8.51c-4.14-.29-8.48,2.63-8.8,7.08a146.29,146.29,0,0,0,0,21.35c.33,4.52,4.53,7.25,8.85,7a8.66,8.66,0,0,0,8.2-8.45C383.49,682.62,383.34,679.62,383.33,676.63Zm70.85-.08h-.1c0,3-.19,6,.05,9,.38,4.93,3.66,8.23,8.15,8.55s8.74-2.63,9.11-7.39a135.76,135.76,0,0,0-.05-20.86c-.34-4.34-4.82-7.4-8.85-7.21a8.9,8.9,0,0,0-8.25,8C453.93,669.88,454.18,673.22,454.18,676.55Zm132.27-.62c0,3.33-.24,6.68.06,10a8.65,8.65,0,0,0,8,8.11c4.45.36,8.52-2,9-6.79a117.49,117.49,0,0,0,0-21.79c-.44-4.67-4.77-7.19-9-6.76a9.1,9.1,0,0,0-8,8.29C586.23,669.93,586.44,672.94,586.45,675.93Zm-159.06.91h0c0-3.32.23-6.67-.05-10a8.93,8.93,0,0,0-8.5-8.27c-3.85-.11-8.41,3.24-8.69,7.43a153,153,0,0,0,0,20.87c.31,4.31,4.74,7.38,8.79,7.23a8.62,8.62,0,0,0,8.32-7.82A90.58,90.58,0,0,0,427.39,676.84Z" transform="translate(-286.28 -340.76)"/><path class="cls-6" d="M780.3,560.71c-5.49-1.68-10.13-2.94-14.61-4.59a4.22,4.22,0,0,1-2.14-3.23c-.12-34.95-.1-69.9-.1-105.81,3.89.28,7.53.09,10.94.9,4.58,1.08,5.94,4.76,5.92,9.2-.06,15,0,30,0,44.95v58.58Z" transform="translate(-286.28 -340.76)"/><path d="M339.36,676.46c0,2.83.14,5.67,0,8.49-.32,5.24-3.57,8.73-8.21,9.09a8.66,8.66,0,0,1-9.36-7.8,124.49,124.49,0,0,1,.07-19.88,8.76,8.76,0,0,1,8.94-7.74c4.49.2,8.16,3.88,8.52,8.86.22,3,0,6,0,9Z" transform="translate(-286.28 -340.76)"/><path d="M542.26,676.34c0-3-.2-6,0-9,.39-4.85,3.8-8.34,8.13-8.71s8.82,2.6,9.24,7.35a122,122,0,0,1,0,20.85c-.39,4.47-4.75,7.39-8.84,7.26-4.31-.14-7.84-3.57-8.51-8.29a6.64,6.64,0,0,1-.09-1v-8.48Z" transform="translate(-286.28 -340.76)"/><path d="M498.25,676.48c0-3.16-.15-6.33,0-9.48a9,9,0,0,1,7.87-8.33c4.24-.47,8.68,2.19,9.07,6.71a134.84,134.84,0,0,1,0,21.83c-.37,4.57-4.61,7.17-9,6.83-4.56-.35-7.79-3.7-8.06-8.58-.16-3,0-6,0-9Z" transform="translate(-286.28 -340.76)"/><path d="M383.34,676.63c0,3,.15,6,0,9a8.66,8.66,0,0,1-8.2,8.45c-4.32.26-8.52-2.47-8.85-7a146.29,146.29,0,0,1,0-21.35c.32-4.45,4.66-7.37,8.8-7.08a9.06,9.06,0,0,1,8.24,8.51C383.47,670.3,383.33,673.47,383.34,676.63Z" transform="translate(-286.28 -340.76)"/><path d="M454.18,676.55c0-3.33-.25-6.67.06-10a8.9,8.9,0,0,1,8.25-8c4-.19,8.51,2.87,8.85,7.21a135.76,135.76,0,0,1,.05,20.86c-.37,4.76-4.73,7.71-9.11,7.39s-7.77-3.62-8.15-8.55c-.24-3-.05-6-.05-9Z" transform="translate(-286.28 -340.76)"/><path d="M586.45,675.93c0-3-.22-6,0-9a9.1,9.1,0,0,1,8-8.29c4.27-.43,8.6,2.09,9,6.76a117.49,117.49,0,0,1,0,21.79c-.45,4.77-4.52,7.15-9,6.79a8.65,8.65,0,0,1-8-8.11C586.21,682.61,586.45,679.26,586.45,675.93Z" transform="translate(-286.28 -340.76)"/><path d="M427.39,676.84a90.58,90.58,0,0,1-.06,9.47,8.62,8.62,0,0,1-8.32,7.82c-4.05.15-8.48-2.92-8.79-7.23a153,153,0,0,1,0-20.87c.28-4.19,4.84-7.54,8.69-7.43a8.93,8.93,0,0,1,8.5,8.27c.28,3.3.05,6.65.05,10Z" transform="translate(-286.28 -340.76)"/><path class="cls-7" d="M745.21,421.91c0-7.14-3.34-10.19-10.58-10.21q-31-.06-62,0-72.72,0-145.43,0H304.15q0,103,0,206v5.78h7.05q156,0,312,.13c5.39,0,8-1.42,10.49-6.42C647.37,589.22,669,570,698.34,559.45c14.95-5.4,30.38-7.2,46.6-6.51.14-1.25.28-1.89.28-2.53Q745.25,486.15,745.21,421.91Z" transform="translate(-286.28 -340.76)"/></svg>